<svg width="1453" height="847" viewBox="0 0 1453 847" fill="none" xmlns="http://www.w3.org/2000/svg">
<rect width="1453" height="847" fill="white"/>
<path d="M1255.97 385.692C1237.03 193.108 1367 144 1453 150V847H951.464C943.627 726.634 1002.78 641.832 1098.5 610C1215.79 570.995 1268.49 513 1255.97 385.692Z" fill="#00848C"/>
<mask id="mask0" mask-type="alpha" maskUnits="userSpaceOnUse" x="0" y="0" width="600" height="700">
<rect width="600" height="700" fill="#C4C4C4"/>
</mask>
<g mask="url(#mask0)">
<path d="M382.287 138.926C426.26 128.12 505.721 117.315 494.921 0H-4.21846C-30.1912 230.771 -9.3925 644.155 -4.21846 642.145C67.3038 614.36 152.703 622.078 191.5 642.145C224.057 658.984 434.21 740.766 518.5 600.5C648 385 472 336.5 382.287 288.5C275.268 231.241 338.313 149.731 382.287 138.926Z" fill="#FFD76B"/>
</g>
<path d="M1093.81 320.685C1069.47 217.045 997.692 212.037 878.039 212.038C808.962 208.94 820.847 181.143 743.061 134.513C665.275 87.884 618.5 115.425 579.58 170.324C527.302 244.065 611.638 339.831 637.999 379.265C659.444 411.344 604.326 486.365 622.924 558.11C639.228 621.009 705.226 607.799 733.16 639.033C754.456 662.844 756.782 711.145 788.114 737.681C819.473 764.239 865.513 706.743 876.31 645.453C883.585 604.155 892.499 535.709 949.645 529.687C1068.11 517.202 1118.14 424.325 1093.81 320.685Z" fill="#FDB0B0"/>
<mask id="mask1" mask-type="alpha" maskUnits="userSpaceOnUse" x="847" y="0" width="418" height="200">
<rect x="847" width="418" height="200" fill="#C4C4C4"/>
</mask>
<g mask="url(#mask1)">
<path d="M1207.5 183.298C1243.5 177.024 1267.81 78.6754 1233.08 -2.64318C1212.69 -2.64341 879.184 -25.9459 864.027 -2.64318C837.415 38.2716 854.588 106.737 919.311 136.165C1022.98 183.298 1063.13 103.331 1108.05 143.94C1151.59 183.298 1171.5 189.573 1207.5 183.298Z" fill="#FF816D"/>
</g>
<mask id="mask2" mask-type="alpha" maskUnits="userSpaceOnUse" x="50" y="682" width="427" height="165">
<rect x="50" y="682" width="427" height="165" fill="#C4C4C4"/>
</mask>
<g mask="url(#mask2)">
<path d="M211.963 709.516C112 668.5 68.6808 693.064 55.5082 745.016C43.5542 792.162 57 837.5 102 862.5C147 887.5 179 856.5 246 871.5C300.091 883.61 375.988 882.205 406 871.5C435.684 860.912 492.5 843.5 473.5 764C458.922 703 377.442 727 313.5 727C289 727 264.067 730.895 211.963 709.516Z" fill="#5F5D9E"/>
</g>
</svg>
