<svg width="155" height="155" viewBox="0 0 155 155" fill="none" xmlns="http://www.w3.org/2000/svg">
<g filter="url(#filter0_d)">
<rect x="20" y="16" width="114.294" height="114.294" rx="10" fill="#0C9199"/>
</g>
<path d="M65.6169 72.0853L79.9484 95.6804C80.2093 96.039 80.052 96.3812 79.6453 96.3812H70.7318C70.1754 96.3812 69.9145 96.2628 69.6727 95.8153C66.3997 90.0251 63.0576 84.2349 59.6388 78.0137H59.5429C56.3969 84.0044 53.1517 89.9564 49.8082 95.868C49.5742 96.2101 49.3133 96.345 48.8912 96.345H40.4535C39.9355 96.345 39.8971 95.9864 40.158 95.7298L54.1671 72.8354L40.6185 49.6711C40.2961 49.3125 40.6185 49.0526 40.9139 49.0526H49.7085C50.2265 49.0526 50.4298 49.1415 50.6294 49.5297C53.8945 55.3658 57.0858 61.232 60.2028 67.1274H60.2988C63.2763 61.3371 66.557 55.3232 69.7111 49.5823C69.972 49.2237 70.1293 49 70.632 49H78.8625C79.2807 49 79.4419 49.2764 79.1848 49.6185L65.6169 72.0853ZM82.4617 79.2309C82.4617 69.0191 90.3775 61.0312 102.967 61.0312C104.045 61.0312 104.605 61.0312 105.626 61.12V49.5034C105.626 49.227 105.883 49.0559 106.144 49.0559H114.217C114.635 49.0559 114.739 49.1908 114.739 49.3981V89.683C114.739 90.864 114.739 92.3543 115 93.9631C115 94.2395 114.896 94.3217 114.582 94.4632C110.491 96.1298 106.019 96.9962 101.49 96.9997C90.3775 97.049 82.4617 91.1733 82.4617 79.2309ZM105.63 68.0058C104.685 67.6961 103.679 67.5453 102.668 67.5616C96.2176 67.5616 91.7205 71.8254 91.7205 78.8888C91.7205 86.9589 96.3135 90.1962 102.111 90.1962C103.328 90.1962 104.671 90.0777 105.63 89.7191V68.0058Z" fill="white"/>
<defs>
<filter id="filter0_d" x="0" y="0" width="154.294" height="154.294" filterUnits="userSpaceOnUse" color-interpolation-filters="sRGB">
<feFlood flood-opacity="0" result="BackgroundImageFix"/>
<feColorMatrix in="SourceAlpha" type="matrix" values="0 0 0 0 0 0 0 0 0 0 0 0 0 0 0 0 0 0 127 0"/>
<feOffset dy="4"/>
<feGaussianBlur stdDeviation="10"/>
<feColorMatrix type="matrix" values="0 0 0 0 0 0 0 0 0 0 0 0 0 0 0 0 0 0 0.15 0"/>
<feBlend mode="normal" in2="BackgroundImageFix" result="effect1_dropShadow"/>
<feBlend mode="normal" in="SourceGraphic" in2="effect1_dropShadow" result="shape"/>
</filter>
</defs>
</svg>
