<svg width="155" height="155" viewBox="0 0 155 155" fill="none" xmlns="http://www.w3.org/2000/svg">
<g filter="url(#filter0_d)">
<rect x="20" y="16" width="114.294" height="114.294" rx="10" fill="#FFD76B"/>
</g>
<path d="M52.4266 81.9762L48.5058 96.6875C48.4279 97.0905 48.2536 97.2458 47.7713 97.2458H40.5084C40.0262 97.2458 39.9483 97.072 40.0262 96.5137L54.0699 47.5439C54.3035 46.6566 54.4742 45.9467 54.5521 43.4991C54.5521 43.1701 54.7079 43 54.9564 43H65.3315C65.6616 43 65.8137 43.0961 65.8916 43.4991L81.6379 96.5877C81.7158 96.9907 81.6379 97.2236 81.2336 97.2236H73.0804C72.6761 97.2236 72.4238 97.0905 72.3459 96.7614L68.2693 81.954H52.4266V81.9762ZM66.2959 73.9643C64.9049 68.5146 61.5442 56.5577 60.3276 50.7975H60.2497C59.1888 56.554 56.5217 66.3184 54.4742 73.9643H66.2959ZM92.8031 79.011C92.8996 85.6919 96.0674 90.1619 103.583 90.1619C106.52 90.1619 109.032 89.7774 111.639 88.6201C111.969 88.4648 112.218 88.561 112.218 88.9677V95.1494C112.218 95.6301 112.062 95.8815 111.717 96.1329C109.11 97.4232 105.864 98 101.787 98C88.7265 98 83.8376 88.4094 83.8376 77.6652C83.8376 66.0337 89.8653 56.5208 100.493 56.5208C111.254 56.5208 115 65.5531 115 72.8699C115 75.2398 114.826 77.1846 114.596 78.0867C114.499 78.4897 114.343 78.6265 113.939 78.7042C112.952 78.8779 110.018 79.0332 105.689 79.0332H92.8031V79.011ZM102.852 72.2303C105.382 72.2303 106.272 72.2303 106.524 72.1527C106.524 71.8236 106.602 71.5352 106.602 71.306C106.602 68.6107 105.289 63.6786 100.148 63.6786C95.4145 63.6786 93.3669 67.838 92.8847 72.2303H102.852Z" fill="white"/>
<defs>
<filter id="filter0_d" x="0" y="0" width="154.294" height="154.294" filterUnits="userSpaceOnUse" color-interpolation-filters="sRGB">
<feFlood flood-opacity="0" result="BackgroundImageFix"/>
<feColorMatrix in="SourceAlpha" type="matrix" values="0 0 0 0 0 0 0 0 0 0 0 0 0 0 0 0 0 0 127 0"/>
<feOffset dy="4"/>
<feGaussianBlur stdDeviation="10"/>
<feColorMatrix type="matrix" values="0 0 0 0 0 0 0 0 0 0 0 0 0 0 0 0 0 0 0.15 0"/>
<feBlend mode="normal" in2="BackgroundImageFix" result="effect1_dropShadow"/>
<feBlend mode="normal" in="SourceGraphic" in2="effect1_dropShadow" result="shape"/>
</filter>
</defs>
</svg>
