<svg width="155" height="155" viewBox="0 0 155 155" fill="none" xmlns="http://www.w3.org/2000/svg">
<g filter="url(#filter0_d)">
<rect x="20.5718" y="16" width="114.294" height="114.294" rx="10" fill="#5F5D9E"/>
</g>
<path d="M77.719 36.5728C57.5119 36.5728 41.145 52.9396 41.145 73.1468C41.145 89.3308 51.6143 103 66.1525 107.846C67.9812 108.166 68.667 107.069 68.667 106.109C68.667 105.24 68.6213 102.36 68.6213 99.2972C59.432 100.989 57.0547 97.057 56.3232 94.9998C55.9118 93.9482 54.1288 90.7023 52.5744 89.8337C51.2943 89.1479 49.4656 87.4564 52.5287 87.4106C55.4089 87.3649 57.4662 90.0623 58.1519 91.1595C61.4436 96.6913 66.7011 95.1369 68.8041 94.1768C69.1241 91.7995 70.0842 90.1994 71.1357 89.2851C62.998 88.3707 54.4945 85.2162 54.4945 71.2266C54.4945 67.2492 55.9118 63.9576 58.2434 61.3974C57.8776 60.483 56.5975 56.7342 58.6091 51.7053C58.6091 51.7053 61.6722 50.7452 68.667 55.4541C71.5929 54.6312 74.7017 54.2197 77.8105 54.2197C80.9193 54.2197 84.0281 54.6312 86.954 55.4541C93.9488 50.6995 97.0118 51.7053 97.0118 51.7053C99.0234 56.7342 97.7433 60.483 97.3776 61.3974C99.7092 63.9576 101.126 67.2035 101.126 71.2266C101.126 85.2619 92.5772 88.3707 84.4395 89.2851C85.7653 90.428 86.9083 92.6224 86.9083 96.0513C86.9083 100.943 86.8625 104.875 86.8625 106.109C86.8625 107.069 87.5483 108.212 89.377 107.846C96.638 105.396 102.948 100.73 107.417 94.5049C111.887 88.2801 114.292 80.8101 114.293 73.1468C114.293 52.9396 97.9262 36.5728 77.719 36.5728Z" fill="white"/>
<defs>
<filter id="filter0_d" x="0.571777" y="0" width="154.294" height="154.294" filterUnits="userSpaceOnUse" color-interpolation-filters="sRGB">
<feFlood flood-opacity="0" result="BackgroundImageFix"/>
<feColorMatrix in="SourceAlpha" type="matrix" values="0 0 0 0 0 0 0 0 0 0 0 0 0 0 0 0 0 0 127 0"/>
<feOffset dy="4"/>
<feGaussianBlur stdDeviation="10"/>
<feColorMatrix type="matrix" values="0 0 0 0 0 0 0 0 0 0 0 0 0 0 0 0 0 0 0.15 0"/>
<feBlend mode="normal" in2="BackgroundImageFix" result="effect1_dropShadow"/>
<feBlend mode="normal" in="SourceGraphic" in2="effect1_dropShadow" result="shape"/>
</filter>
</defs>
</svg>
