<svg width="155" height="155" viewBox="0 0 155 155" fill="none" xmlns="http://www.w3.org/2000/svg">
<g filter="url(#filter0_d)">
<rect x="20" y="16" width="114.294" height="114.294" rx="10" fill="#FFD76B"/>
</g>
<path d="M44.0017 36.5728L50.0345 103.435L77.107 110.864L104.25 103.425L110.292 36.5728H44.0064H44.0017ZM99.0769 99.1722L77.2573 105.148V105.18L77.2009 105.162L77.1446 105.18V105.148L55.325 99.1722L50.1661 42.0424H104.236L99.0769 99.1722ZM87.3308 75.0369L86.3723 85.6698L77.107 88.14L67.8651 85.6791L67.2731 79.1322H58.9428L60.1033 92.0124L77.1399 96.6695L94.1248 92.0124L96.4035 66.837H66.1596L65.4031 58.4375H97.1553L97.8976 50.2377H56.3304L58.5716 75.0369H87.3308Z" fill="white"/>
<defs>
<filter id="filter0_d" x="0" y="0" width="154.294" height="154.294" filterUnits="userSpaceOnUse" color-interpolation-filters="sRGB">
<feFlood flood-opacity="0" result="BackgroundImageFix"/>
<feColorMatrix in="SourceAlpha" type="matrix" values="0 0 0 0 0 0 0 0 0 0 0 0 0 0 0 0 0 0 127 0"/>
<feOffset dy="4"/>
<feGaussianBlur stdDeviation="10"/>
<feColorMatrix type="matrix" values="0 0 0 0 0 0 0 0 0 0 0 0 0 0 0 0 0 0 0.15 0"/>
<feBlend mode="normal" in2="BackgroundImageFix" result="effect1_dropShadow"/>
<feBlend mode="normal" in="SourceGraphic" in2="effect1_dropShadow" result="shape"/>
</filter>
</defs>
</svg>
