<svg width="155" height="155" viewBox="0 0 155 155" fill="none" xmlns="http://www.w3.org/2000/svg">
<g filter="url(#filter0_d)">
<rect x="20.3459" y="16" width="114.294" height="114.294" rx="10" fill="#FFD76B"/>
</g>
<rect x="40.88" y="43.0596" width="78.1496" height="66.4272" fill="white"/>
<path d="M70.921 70.7319C70.5058 69.4449 70.1322 68.1994 69.717 66.9123C69.3018 65.6253 68.9282 64.4213 68.596 63.2173C68.2639 62.0548 67.9733 60.9754 67.6827 59.979H67.5996C67.226 61.7642 66.7693 63.5495 66.1881 65.3347C65.5653 67.3275 64.9426 69.4034 64.2783 71.4792C63.697 73.5966 63.0743 75.5479 62.4515 77.2916H72.9968C72.7477 76.4156 72.4156 75.3818 72.042 74.2982C71.6683 73.1814 71.2946 71.9774 70.921 70.7319V70.7319ZM109.2 27.4297H44.8483C35.0918 27.4297 27.2036 35.3179 27.2036 45.0744V106.935C27.2036 116.691 35.0918 124.579 44.8483 124.579H109.2C118.956 124.579 126.844 116.691 126.844 106.935V45.0744C126.844 35.3179 118.956 27.4297 109.2 27.4297ZM88.2336 96.0573H79.5524C79.2659 96.0988 78.9753 95.8912 78.8923 95.6006L75.4879 85.7195H60.0435L56.8883 95.476C56.8052 95.8497 56.4731 96.0988 56.0994 96.0614H48.2942C47.8376 96.0614 47.713 95.8082 47.8376 95.3141L61.206 56.8237C61.3306 56.4085 61.4551 55.9519 61.6212 55.4536C61.7873 54.5818 61.8703 53.6684 61.8703 52.755C61.8288 52.5475 61.9948 52.3399 62.2024 52.2984H72.9553C73.2875 52.2984 73.4535 52.4229 73.495 52.6305L88.6487 95.393C88.7733 95.8455 88.6487 96.0573 88.2336 96.0573V96.0573ZM102.349 95.4345C102.349 95.8912 102.187 96.0988 101.814 96.0988H93.6723C93.2571 96.0988 93.0495 95.8455 93.0495 95.4345V63.4664C93.0495 63.0513 93.2198 62.8852 93.5934 62.8852H101.814C102.187 62.8852 102.349 63.0928 102.349 63.4664V95.4345V95.4345ZM101.482 57.9447C100.991 58.4426 100.4 58.8299 99.7478 59.0805C99.0955 59.3312 98.397 59.4393 97.6994 59.3978C96.3294 59.4393 95.0008 58.8996 94.0003 57.9447C93.0491 56.9046 92.5425 55.5338 92.5887 54.1251C92.5472 52.7135 93.0869 51.385 94.0792 50.4301C95.0839 49.4752 96.4124 48.977 97.7825 48.977C99.4058 48.977 100.643 49.4752 101.561 50.4301C102.474 51.4265 102.972 52.755 102.931 54.1251C102.972 55.5367 102.474 56.9067 101.482 57.9447V57.9447Z" fill="#FFD76B"/>
<defs>
<filter id="filter0_d" x="0.345947" y="0" width="154.294" height="154.294" filterUnits="userSpaceOnUse" color-interpolation-filters="sRGB">
<feFlood flood-opacity="0" result="BackgroundImageFix"/>
<feColorMatrix in="SourceAlpha" type="matrix" values="0 0 0 0 0 0 0 0 0 0 0 0 0 0 0 0 0 0 127 0"/>
<feOffset dy="4"/>
<feGaussianBlur stdDeviation="10"/>
<feColorMatrix type="matrix" values="0 0 0 0 0 0 0 0 0 0 0 0 0 0 0 0 0 0 0.15 0"/>
<feBlend mode="normal" in2="BackgroundImageFix" result="effect1_dropShadow"/>
<feBlend mode="normal" in="SourceGraphic" in2="effect1_dropShadow" result="shape"/>
</filter>
</defs>
</svg>
