<svg width="163" height="63" viewBox="0 0 163 63" fill="none" xmlns="http://www.w3.org/2000/svg">
<path d="M58.2354 3.90103C19.376 -4.67583 7.81902 2.04697 2.37598 19.7433C-0.98012 30.6545 -3.12401 44.6828 12.7983 56.0116C29.5646 67.941 46.4588 58.3065 75.876 56.0116C107.876 53.5153 117.376 58.7111 137.376 61.3089C157.376 63.9068 166.948 43.5253 160.376 16.1068C155.328 -4.95057 126.612 9.85655 100.191 9.85655C90.0676 9.85655 80.383 8.78936 58.2354 3.90103Z" fill="#FDB0B0"/>
<path d="M62.817 38.18C61.953 38.18 61.185 38.072 60.513 37.856C59.841 37.64 59.211 37.274 58.623 36.758C58.299 36.47 58.137 36.152 58.137 35.804C58.137 35.528 58.239 35.288 58.443 35.084C58.647 34.868 58.893 34.76 59.181 34.76C59.409 34.76 59.613 34.832 59.793 34.976C60.273 35.372 60.741 35.66 61.197 35.84C61.653 36.02 62.193 36.11 62.817 36.11C63.489 36.11 64.065 35.96 64.545 35.66C65.037 35.36 65.283 34.988 65.283 34.544C65.283 34.004 65.043 33.584 64.563 33.284C64.083 32.972 63.321 32.738 62.277 32.582C59.649 32.198 58.335 30.974 58.335 28.91C58.335 28.154 58.533 27.5 58.929 26.948C59.325 26.384 59.865 25.958 60.549 25.67C61.233 25.37 61.995 25.22 62.835 25.22C63.591 25.22 64.299 25.334 64.959 25.562C65.631 25.79 66.189 26.09 66.633 26.462C66.981 26.738 67.155 27.056 67.155 27.416C67.155 27.692 67.053 27.938 66.849 28.154C66.645 28.358 66.405 28.46 66.129 28.46C65.949 28.46 65.787 28.406 65.643 28.298C65.331 28.046 64.893 27.818 64.329 27.614C63.777 27.398 63.279 27.29 62.835 27.29C62.079 27.29 61.491 27.434 61.071 27.722C60.663 27.998 60.459 28.364 60.459 28.82C60.459 29.336 60.669 29.726 61.089 29.99C61.521 30.254 62.193 30.47 63.105 30.638C64.137 30.818 64.959 31.052 65.571 31.34C66.195 31.616 66.663 32 66.975 32.492C67.287 32.972 67.443 33.614 67.443 34.418C67.443 35.174 67.227 35.84 66.795 36.416C66.375 36.98 65.811 37.418 65.103 37.73C64.395 38.03 63.633 38.18 62.817 38.18ZM77.9672 32.96C77.9552 33.248 77.8412 33.482 77.6252 33.662C77.4092 33.842 77.1572 33.932 76.8692 33.932H70.9292C71.0732 34.64 71.4032 35.198 71.9192 35.606C72.4352 36.002 73.0172 36.2 73.6652 36.2C74.1572 36.2 74.5412 36.158 74.8172 36.074C75.0932 35.978 75.3092 35.882 75.4652 35.786C75.6332 35.678 75.7472 35.606 75.8072 35.57C76.0232 35.462 76.2272 35.408 76.4192 35.408C76.6712 35.408 76.8872 35.498 77.0672 35.678C77.2472 35.858 77.3372 36.068 77.3372 36.308C77.3372 36.632 77.1692 36.926 76.8332 37.19C76.4972 37.466 76.0472 37.7 75.4832 37.892C74.9192 38.084 74.3492 38.18 73.7732 38.18C72.7652 38.18 71.8832 37.97 71.1272 37.55C70.3832 37.13 69.8072 36.554 69.3992 35.822C68.9912 35.078 68.7872 34.244 68.7872 33.32C68.7872 32.288 69.0032 31.382 69.4352 30.602C69.8672 29.822 70.4372 29.228 71.1452 28.82C71.8532 28.4 72.6092 28.19 73.4132 28.19C74.2052 28.19 74.9492 28.406 75.6452 28.838C76.3532 29.27 76.9172 29.852 77.3372 30.584C77.7572 31.316 77.9672 32.108 77.9672 32.96ZM73.4132 30.17C72.0212 30.17 71.1992 30.824 70.9472 32.132H75.6632V32.006C75.6152 31.502 75.3692 31.07 74.9252 30.71C74.4812 30.35 73.9772 30.17 73.4132 30.17ZM84.9166 28.19C86.1406 28.19 86.9866 28.556 87.4546 29.288C87.9226 30.008 88.1566 31.01 88.1566 32.294V36.902C88.1566 37.214 88.0546 37.478 87.8506 37.694C87.6466 37.898 87.3886 38 87.0766 38C86.7646 38 86.5066 37.898 86.3026 37.694C86.0986 37.478 85.9966 37.214 85.9966 36.902V32.294C85.9966 31.634 85.8586 31.118 85.5826 30.746C85.3066 30.362 84.8326 30.17 84.1606 30.17C83.4646 30.17 82.9186 30.374 82.5226 30.782C82.1266 31.178 81.9286 31.682 81.9286 32.294V36.902C81.9286 37.214 81.8266 37.478 81.6226 37.694C81.4186 37.898 81.1606 38 80.8486 38C80.5366 38 80.2786 37.898 80.0746 37.694C79.8706 37.478 79.7686 37.214 79.7686 36.902V29.468C79.7686 29.156 79.8706 28.898 80.0746 28.694C80.2786 28.478 80.5366 28.37 80.8486 28.37C81.1606 28.37 81.4186 28.478 81.6226 28.694C81.8266 28.898 81.9286 29.156 81.9286 29.468V29.774C82.2526 29.342 82.6726 28.97 83.1886 28.658C83.7166 28.346 84.2926 28.19 84.9166 28.19ZM98.2853 24.68C98.5973 24.68 98.8553 24.782 99.0593 24.986C99.2633 25.19 99.3653 25.454 99.3653 25.778V36.902C99.3653 37.214 99.2633 37.478 99.0593 37.694C98.8553 37.898 98.5973 38 98.2853 38C97.9733 38 97.7153 37.898 97.5113 37.694C97.3193 37.49 97.2173 37.232 97.2053 36.92C96.9053 37.268 96.4973 37.568 95.9813 37.82C95.4773 38.06 94.9433 38.18 94.3793 38.18C93.5513 38.18 92.8013 37.97 92.1293 37.55C91.4573 37.118 90.9233 36.524 90.5273 35.768C90.1433 35.012 89.9513 34.154 89.9513 33.194C89.9513 32.234 90.1433 31.376 90.5273 30.62C90.9113 29.852 91.4333 29.258 92.0933 28.838C92.7653 28.406 93.5033 28.19 94.3073 28.19C94.8833 28.19 95.4233 28.298 95.9273 28.514C96.4313 28.718 96.8573 28.982 97.2053 29.306V25.778C97.2053 25.466 97.3073 25.208 97.5113 25.004C97.7153 24.788 97.9733 24.68 98.2853 24.68ZM94.6493 36.2C95.4293 36.2 96.0653 35.918 96.5573 35.354C97.0493 34.778 97.2953 34.058 97.2953 33.194C97.2953 32.33 97.0493 31.61 96.5573 31.034C96.0653 30.458 95.4293 30.17 94.6493 30.17C93.8813 30.17 93.2513 30.458 92.7593 31.034C92.2673 31.61 92.0213 32.33 92.0213 33.194C92.0213 34.058 92.2613 34.778 92.7413 35.354C93.2333 35.918 93.8693 36.2 94.6493 36.2ZM102.948 34.022C102.54 34.022 102.318 33.794 102.282 33.338L101.76 26.714C101.736 26.342 101.832 26.03 102.048 25.778C102.276 25.526 102.57 25.4 102.93 25.4C103.29 25.4 103.584 25.526 103.812 25.778C104.04 26.03 104.136 26.342 104.1 26.714L103.596 33.338C103.56 33.794 103.344 34.022 102.948 34.022ZM102.822 38C102.474 38 102.204 37.91 102.012 37.73C101.832 37.538 101.742 37.268 101.742 36.92V36.614C101.742 36.266 101.832 36.002 102.012 35.822C102.204 35.63 102.474 35.534 102.822 35.534H103.056C103.404 35.534 103.668 35.63 103.848 35.822C104.04 36.002 104.136 36.266 104.136 36.614V36.92C104.136 37.268 104.04 37.538 103.848 37.73C103.668 37.91 103.404 38 103.056 38H102.822Z" fill="black"/>
</svg>
