<svg width="155" height="155" viewBox="0 0 155 155" fill="none" xmlns="http://www.w3.org/2000/svg">
<g filter="url(#filter0_d)">
<rect x="20" y="16" width="114.294" height="114.294" rx="10" fill="#0C9199"/>
</g>
<rect x="29" y="37" width="97" height="72" fill="white"/>
<path d="M112.698 20H42.3021C31.6292 20 23 28.6068 23 39.2521V106.748C23 117.393 31.6292 126 42.3021 126H112.698C123.371 126 132 117.393 132 106.748V39.2521C132 28.6068 123.371 20 112.698 20ZM79.7708 94.7436H70.2787C69.9608 94.7934 69.6429 94.5624 69.5521 94.2453L65.8279 83.4188H48.9329L45.4812 94.1094C45.3904 94.5171 45.0271 94.7889 44.6183 94.7436H36.08C35.5804 94.7436 35.4442 94.4718 35.5804 93.9282L50.2046 52.0718C50.3408 51.6188 50.4771 51.1205 50.6587 50.5769C50.8858 49.6256 51.0221 48.6744 51.0221 47.6778C50.9767 47.4513 51.1583 47.2248 51.3854 47.1795H63.1483C63.4662 47.1795 63.6933 47.3154 63.7387 47.5419L80.225 94.0233C80.3612 94.5171 80.225 94.7436 79.7708 94.7436V94.7436ZM114.969 94.7934H107.153C106.975 94.8093 106.798 94.7699 106.644 94.6807C106.49 94.5914 106.368 94.4567 106.294 94.2951C106.203 93.9327 106.112 93.5205 106.017 93.1627C105.926 92.8456 105.926 92.5285 105.926 92.2114C104.473 93.5205 102.702 94.4763 100.794 95.0154C99.1592 95.4729 97.4379 95.6949 95.753 95.6949C94.0771 95.6949 92.3921 95.4684 90.8025 94.9248C89.3296 94.4241 88.0036 93.5683 86.9421 92.4333C85.7613 91.165 84.8984 89.6701 84.3942 88.0393C83.7548 85.9561 83.4498 83.7851 83.4905 81.6068V59.1385C83.4789 59.0697 83.4817 58.9993 83.4987 58.9317C83.5156 58.864 83.5463 58.8006 83.589 58.7454C83.6316 58.6901 83.6852 58.6442 83.7463 58.6105C83.8075 58.5768 83.875 58.5561 83.9446 58.5496H92.7509C93.028 58.5043 93.3005 58.6855 93.3459 59.0026V80.4336C93.3459 82.4222 93.8 84.0077 94.6584 85.1402C95.5259 86.2726 97.2926 86.8661 99.3409 86.8661C100.381 86.8661 101.425 86.6803 102.429 86.3179C103.474 85.9556 104.423 85.4618 105.29 84.8231V59.0479C105.29 58.7308 105.518 58.5496 105.926 58.5496H114.601C114.832 58.5043 115.096 58.6855 115.096 58.912V86.8162C115.096 88.0438 115.096 89.131 115.146 90.0778C115.191 91.0336 115.241 91.849 115.282 92.5738C115.373 93.2985 115.414 93.7062 115.459 94.2C115.514 94.6077 115.332 94.7934 114.969 94.7934V94.7934ZM60.8321 67.247C60.3779 65.8427 59.9692 64.4838 59.515 63.0795C59.0608 61.6752 58.6521 60.3615 58.2887 59.0479C57.9254 57.7795 57.6075 56.6017 57.2896 55.5145H57.1987C56.79 57.4624 56.2904 59.4103 55.6546 61.3581C54.9733 63.5325 54.2921 65.7974 53.5654 68.0624C52.975 70.3726 52.2483 72.5017 51.5671 74.4043H63.1029C62.8304 73.453 62.4671 72.3205 62.0583 71.1427C61.6496 69.9197 61.2408 68.606 60.8321 67.247V67.247Z" fill="#0C9199"/>
<defs>
<filter id="filter0_d" x="0" y="0" width="154.294" height="154.294" filterUnits="userSpaceOnUse" color-interpolation-filters="sRGB">
<feFlood flood-opacity="0" result="BackgroundImageFix"/>
<feColorMatrix in="SourceAlpha" type="matrix" values="0 0 0 0 0 0 0 0 0 0 0 0 0 0 0 0 0 0 127 0"/>
<feOffset dy="4"/>
<feGaussianBlur stdDeviation="10"/>
<feColorMatrix type="matrix" values="0 0 0 0 0 0 0 0 0 0 0 0 0 0 0 0 0 0 0.15 0"/>
<feBlend mode="normal" in2="BackgroundImageFix" result="effect1_dropShadow"/>
<feBlend mode="normal" in="SourceGraphic" in2="effect1_dropShadow" result="shape"/>
</filter>
</defs>
</svg>
