<svg width="342" height="394" viewBox="0 0 342 394" fill="none" xmlns="http://www.w3.org/2000/svg">
<path d="M335.986 119.963C317.834 55.6299 272.669 54.4886 197.613 57.8228C154.196 57.8045 160.877 40.0366 110.784 12.9544C60.6906 -14.1279 32.117 4.45161 9.23325 39.9727C-21.5051 87.6861 34.0657 145.408 51.7002 169.41C66.0462 188.935 33.5621 237.53 47.2271 282.016C59.2072 321.017 100.238 310.892 118.631 329.706C132.653 344.049 135.458 374.282 155.852 390.054C176.263 405.84 203.54 368.491 208.605 329.744C212.018 303.636 215.702 260.453 251.381 255.083C325.342 243.95 354.139 184.296 335.986 119.963Z" fill="#FDB0B0"/>
</svg>
