<svg width="155" height="155" viewBox="0 0 155 155" fill="none" xmlns="http://www.w3.org/2000/svg">
<g filter="url(#filter0_d)">
<rect x="20" y="16" width="114.294" height="114.294" rx="10" fill="#FDB0B0"/>
</g>
<path fill-rule="evenodd" clip-rule="evenodd" d="M66.2452 37C58.9042 37 53.0002 43.159 53.0002 50.704C53.0002 55.291 55.1842 59.365 58.5412 61.852C56.811 63.1483 55.4086 64.8318 54.4464 66.7678C53.4841 68.7037 52.9888 70.8381 53.0002 73C53.0002 77.59 55.1842 81.661 58.5412 84.148C56.811 85.4443 55.4086 87.1278 54.4464 89.0638C53.4841 90.9997 52.9888 93.1341 53.0002 95.296C53.0002 102.841 58.9042 109 66.2452 109C73.5832 109 79.4902 102.841 79.4902 95.296V83.71C81.8102 85.6444 84.7346 86.7048 87.7552 86.707C95.0962 86.704 101 80.545 101 73C101 68.41 98.8192 64.339 95.4592 61.852C97.1894 60.5557 98.5918 58.8722 99.554 56.9362C100.516 55.0003 101.012 52.8659 101 50.704C101 43.159 95.0962 37 87.7552 37H66.2452V37ZM57.9772 50.704C57.9772 45.931 61.7032 42.109 66.2452 42.109H74.5102V59.299H66.2452C61.7032 59.299 57.9772 55.474 57.9772 50.704V50.704ZM87.7552 59.296H79.4902V42.106H87.7552C92.3002 42.106 96.0232 45.931 96.0232 50.704C96.0232 55.474 92.3002 59.296 87.7552 59.296ZM57.9802 73C57.9802 68.23 61.7062 64.405 66.2482 64.405H74.5132V81.595H66.2452C61.7002 81.595 57.9772 77.77 57.9772 73H57.9802ZM79.4902 73C79.4902 68.23 83.2162 64.405 87.7582 64.405C92.3032 64.405 96.0262 68.227 96.0262 73C96.0262 77.77 92.3032 81.595 87.7582 81.595C83.2162 81.595 79.4932 77.773 79.4932 73H79.4902ZM57.9802 95.296C57.9802 90.526 61.7062 86.704 66.2482 86.704H74.5132V95.296C74.5132 100.069 70.7932 103.891 66.2482 103.891C61.7062 103.891 57.9802 100.069 57.9802 95.296Z" fill="white"/>
<defs>
<filter id="filter0_d" x="0" y="0" width="154.294" height="154.294" filterUnits="userSpaceOnUse" color-interpolation-filters="sRGB">
<feFlood flood-opacity="0" result="BackgroundImageFix"/>
<feColorMatrix in="SourceAlpha" type="matrix" values="0 0 0 0 0 0 0 0 0 0 0 0 0 0 0 0 0 0 127 0"/>
<feOffset dy="4"/>
<feGaussianBlur stdDeviation="10"/>
<feColorMatrix type="matrix" values="0 0 0 0 0 0 0 0 0 0 0 0 0 0 0 0 0 0 0.15 0"/>
<feBlend mode="normal" in2="BackgroundImageFix" result="effect1_dropShadow"/>
<feBlend mode="normal" in="SourceGraphic" in2="effect1_dropShadow" result="shape"/>
</filter>
</defs>
</svg>
