<svg width="382" height="249" viewBox="0 0 382 249" fill="none" xmlns="http://www.w3.org/2000/svg">
<path d="M190.897 248.269C296.327 248.269 381.795 244.156 381.795 239.083C381.795 234.009 296.327 229.896 190.897 229.896C85.4677 229.896 0 234.009 0 239.083C0 244.156 85.4677 248.269 190.897 248.269Z" fill="#EBEBEB"/>
<path d="M218.788 227.073H98.6985V236.515H218.788V227.073Z" fill="#DBDBDB"/>
<path d="M204.489 227.076H112.998L115.324 210.685L115.438 209.912L115.653 208.371L115.76 207.598L115.988 206.063L116.013 205.825L116.089 205.289L116.316 203.748L116.424 202.981L118.048 191.528H199.444L200.981 202.326L201.056 202.85L201.309 204.641L201.379 205.158L201.474 205.825L201.638 206.949L201.708 207.473L201.96 209.269L202.036 209.781L204.489 227.076Z" fill="#EBEBEB"/>
<path d="M201.474 205.825L116.424 202.981L118.049 191.528H199.445L201.474 205.825Z" fill="#DBDBDB"/>
<path d="M312.815 0.269043H4.672V197.473H312.815V0.269043Z" fill="#37474F"/>
<path d="M312.815 168.378H4.67188V197.465H312.815V168.378Z" fill="#EBEBEB"/>
<path d="M163.76 180.967C163.761 181.919 163.462 182.849 162.901 183.64C162.341 184.432 161.543 185.049 160.609 185.413C159.676 185.778 158.648 185.874 157.657 185.688C156.665 185.503 155.755 185.045 155.04 184.372C154.325 183.7 153.839 182.843 153.642 181.91C153.445 180.977 153.547 180.01 153.934 179.131C154.321 178.252 154.977 177.501 155.818 176.974C156.659 176.446 157.647 176.165 158.658 176.166C160.011 176.166 161.309 176.672 162.265 177.572C163.222 178.473 163.76 179.694 163.76 180.967Z" fill="#37474F"/>
<path d="M298.597 13.0864H18.8949V154.698H298.597V13.0864Z" fill="white"/>
<path d="M298.597 13.0864H18.8949V154.698H298.597V13.0864Z" fill="white"/>
<path d="M293.641 19.4961H18.8949V37.8088H293.641V19.4961Z" fill="#FFD76B"/>
<path d="M34.7691 25.6211H28.1315V26.6266H34.7691V25.6211Z" fill="white"/>
<path d="M34.7691 30.1167H28.1315V31.1222H34.7691V30.1167Z" fill="white"/>
<path d="M34.7691 27.897H28.1315V28.9024H34.7691V27.897Z" fill="white"/>
<path d="M283.571 31.2756C283.283 31.4463 282.967 31.571 282.636 31.6445C281.84 31.828 281 31.7224 280.283 31.3486C279.566 30.9748 279.026 30.3604 278.769 29.628C278.513 28.8956 278.559 28.099 278.899 27.3974C279.239 26.6957 279.847 26.1404 280.603 25.8425C281.359 25.5445 282.206 25.5257 282.976 25.7898C283.746 26.054 284.382 26.5816 284.756 27.2674C285.131 27.9533 285.217 28.7469 284.997 29.4898C284.778 30.2328 284.269 30.8705 283.571 31.2756Z" fill="#00848C"/>
<path d="M282.851 28.3197C282.846 28.5036 282.783 28.6821 282.671 28.8326C282.558 28.9832 282.401 29.0992 282.219 29.1661C282.037 29.2329 281.838 29.2477 281.647 29.2086C281.456 29.1694 281.282 29.078 281.146 28.9459C281.01 28.8138 280.918 28.6468 280.883 28.4659C280.847 28.285 280.869 28.0982 280.946 27.929C281.022 27.7599 281.151 27.6158 281.314 27.5149C281.478 27.414 281.669 27.3607 281.864 27.3618C281.997 27.3618 282.128 27.3867 282.249 27.4352C282.371 27.4837 282.481 27.5547 282.573 27.6441C282.665 27.7335 282.737 27.8393 282.785 27.9554C282.832 28.0715 282.855 28.1953 282.851 28.3197Z" fill="white"/>
<path d="M283.572 30.8904V31.2771C283.283 31.4478 282.967 31.5725 282.636 31.646C282.217 31.7433 281.781 31.7608 281.354 31.6975C280.928 31.6341 280.519 31.4912 280.152 31.2771V30.8904C280.137 30.6708 280.171 30.4508 280.251 30.244C280.33 30.0371 280.454 29.8478 280.614 29.6876C280.774 29.5274 280.967 29.3997 281.182 29.3124C281.397 29.2252 281.628 29.1802 281.862 29.1802C282.095 29.1802 282.327 29.2252 282.541 29.3124C282.756 29.3997 282.949 29.5274 283.109 29.6876C283.269 29.8478 283.393 30.0371 283.473 30.244C283.552 30.4508 283.586 30.6708 283.572 30.8904Z" fill="white"/>
<path d="M298.597 13.0864H18.8949V19.4941H298.597V13.0864Z" fill="#00848C"/>
<path d="M24.3065 16.2947C24.3052 16.6086 24.2052 16.9151 24.0189 17.1756C23.8327 17.436 23.5687 17.6387 23.2602 17.758C22.9516 17.8774 22.6125 17.908 22.2855 17.846C21.9585 17.784 21.6583 17.6323 21.4229 17.4099C21.1875 17.1875 21.0274 16.9044 20.9628 16.5965C20.8981 16.2885 20.9319 15.9694 21.0599 15.6795C21.1878 15.3895 21.4041 15.1418 21.6816 14.9675C21.959 14.7932 22.2851 14.7002 22.6186 14.7002C23.0669 14.7018 23.4961 14.8705 23.8125 15.1693C24.1289 15.4682 24.3065 15.8728 24.3065 16.2947Z" fill="#C7C7C7"/>
<path d="M31.2038 16.2947C31.2038 16.6103 31.1042 16.9188 30.9178 17.1811C30.7314 17.4435 30.4664 17.6478 30.1565 17.7684C29.8465 17.8889 29.5056 17.9201 29.1767 17.8581C28.8479 17.7961 28.5461 17.6436 28.3094 17.42C28.0727 17.1964 27.9119 16.9118 27.8472 16.6021C27.7826 16.2924 27.817 15.9716 27.9462 15.6804C28.0754 15.3891 28.2935 15.1405 28.573 14.966C28.8524 14.7915 29.1806 14.699 29.5159 14.7002C29.9642 14.7018 30.3934 14.8705 30.7098 15.1693C31.0261 15.4682 31.2038 15.8728 31.2038 16.2947Z" fill="white"/>
<path d="M38.0938 16.2947C38.0926 16.6086 37.9925 16.9151 37.8063 17.1756C37.6201 17.436 37.356 17.6387 37.0475 17.758C36.739 17.8774 36.3998 17.908 36.0728 17.846C35.7458 17.784 35.4457 17.6323 35.2103 17.4099C34.9749 17.1875 34.8147 16.9044 34.7501 16.5965C34.6855 16.2885 34.7193 15.9694 34.8472 15.6795C34.9752 15.3895 35.1915 15.1418 35.4689 14.9675C35.7463 14.7932 36.0724 14.7002 36.406 14.7002C36.6282 14.7002 36.8482 14.7415 37.0533 14.8217C37.2585 14.9019 37.4449 15.0194 37.6017 15.1676C37.7585 15.3157 37.8827 15.4915 37.9672 15.6849C38.0516 15.8784 38.0947 16.0856 38.0938 16.2947Z" fill="#FFD76B"/>
<path d="M298.597 19.4961H293.635V154.7H298.597V19.4961Z" fill="#DBDBDB"/>
<path d="M296.113 75.0111C295.778 75.0111 295.457 74.8857 295.219 74.6626C294.982 74.4394 294.849 74.1368 294.849 73.8212V21.6377C294.849 21.3221 294.982 21.0194 295.219 20.7963C295.457 20.5731 295.778 20.4478 296.113 20.4478C296.449 20.4478 296.77 20.5731 297.007 20.7963C297.245 21.0194 297.378 21.3221 297.378 21.6377V73.8033C297.38 73.9611 297.349 74.1178 297.287 74.2642C297.225 74.4106 297.132 74.5439 297.014 74.6563C296.897 74.7687 296.756 74.8579 296.602 74.9189C296.447 74.9798 296.281 75.0111 296.113 75.0111Z" fill="#A6A6A6"/>
<path d="M282.851 28.3197C282.846 28.5036 282.783 28.6821 282.671 28.8326C282.558 28.9832 282.401 29.0992 282.219 29.1661C282.037 29.2329 281.838 29.2477 281.647 29.2086C281.456 29.1694 281.282 29.078 281.146 28.9459C281.01 28.8138 280.918 28.6468 280.883 28.4659C280.847 28.285 280.869 28.0982 280.946 27.929C281.022 27.7599 281.151 27.6158 281.314 27.5149C281.478 27.414 281.669 27.3607 281.864 27.3618C281.997 27.3618 282.128 27.3867 282.249 27.4352C282.371 27.4837 282.481 27.5547 282.573 27.6441C282.665 27.7335 282.737 27.8393 282.785 27.9554C282.832 28.0715 282.855 28.1953 282.851 28.3197Z" fill="white"/>
<path d="M283.572 30.8904V31.2771C283.283 31.4478 282.967 31.5725 282.636 31.646C282.217 31.7433 281.781 31.7608 281.354 31.6975C280.928 31.6341 280.519 31.4912 280.152 31.2771V30.8904C280.137 30.6708 280.171 30.4508 280.251 30.244C280.33 30.0371 280.454 29.8478 280.614 29.6876C280.774 29.5274 280.967 29.3997 281.182 29.3124C281.397 29.2252 281.628 29.1802 281.862 29.1802C282.095 29.1802 282.327 29.2252 282.541 29.3124C282.756 29.3997 282.949 29.5274 283.109 29.6876C283.269 29.8478 283.393 30.0371 283.473 30.244C283.552 30.4508 283.586 30.6708 283.572 30.8904Z" fill="white"/>
<path d="M267.192 62.7017H207.681V118.711H267.192V62.7017Z" fill="#A6A6A6" fill-opacity="0.7"/>
<path d="M248.664 85.8111C248.664 87.9024 248.005 89.9467 246.771 91.6854C245.536 93.4242 243.781 94.7793 241.728 95.5793C239.675 96.3793 237.416 96.5883 235.237 96.1799C233.058 95.7715 231.056 94.764 229.486 93.2848C227.915 91.8056 226.846 89.9213 226.413 87.87C225.98 85.8188 226.203 83.6929 227.055 81.7611C227.906 79.8294 229.347 78.1786 231.195 77.0176C233.043 75.8566 235.215 75.2376 237.437 75.2388C238.912 75.2388 240.373 75.5123 241.735 76.0437C243.098 76.575 244.336 77.3539 245.378 78.3357C246.421 79.3175 247.248 80.4831 247.812 81.7657C248.376 83.0484 248.665 84.423 248.664 85.8111Z" fill="white"/>
<path d="M256.838 114.957V118.718H218.036V114.957C218.036 110.115 220.08 105.47 223.718 102.046C227.357 98.622 232.291 96.6982 237.437 96.6982C242.582 96.6982 247.517 98.622 251.155 102.046C254.794 105.47 256.838 110.115 256.838 114.957Z" fill="white"/>
<path d="M270.432 118.809C274.915 114.589 274.915 107.748 270.432 103.529C265.948 99.3097 258.68 99.3096 254.197 103.529C249.713 107.748 249.713 114.589 254.197 118.809C258.68 123.028 265.948 123.028 270.432 118.809Z" fill="#FFD76B"/>
<path d="M263.551 105.171H261.086V117.165H263.551V105.171Z" fill="white"/>
<path d="M255.947 110V112.321H268.691V110H255.947Z" fill="white"/>
<path d="M320.577 91.7936C319.483 97.1482 319.129 103.746 315.463 108.226C312.586 111.731 307.978 113.486 303.452 114.265C293.546 115.979 280.884 113.628 276.737 103.847C275.087 99.9386 276.434 92.8824 281.238 91.2701C283.703 90.449 286.295 90.7168 288.887 90.6751C290.475 90.6843 292.045 90.3563 293.48 89.7156C294.915 89.0749 296.177 88.138 297.174 86.9745C301.435 82.2149 301.878 78.0859 303.92 72.3386C304.079 71.755 304.367 71.2093 304.764 70.7368C305.161 70.2644 305.66 69.8757 306.227 69.5959C308.757 68.4397 311.634 68.1453 314.369 68.7629C317.062 69.6613 319.104 72.6599 320.861 74.6351C322.619 76.6104 323.232 78.4428 322.758 81.0368C322.119 84.6125 321.329 88.2001 320.577 91.7936Z" fill="#263238"/>
<path d="M320.659 94.4483C321.33 89.4805 321.924 84.5066 322.486 79.5328C322.486 79.5031 322.442 79.4912 322.442 79.5328C321.81 83.6142 321.14 87.6778 320.546 91.7651C319.951 95.8524 319.724 99.9279 318.801 103.878C316.727 112.737 306.158 114.153 298.319 111.922C297.959 111.821 297.832 112.368 298.193 112.458C305.146 114.243 314.098 113.85 318.042 107.157C320.23 103.515 320.109 98.5059 320.659 94.4483Z" fill="#263238"/>
<path d="M304.54 71.9468C304.542 71.9283 304.536 71.9099 304.525 71.8949C304.513 71.8799 304.497 71.8692 304.477 71.8649C304.458 71.8606 304.438 71.8629 304.421 71.8714C304.403 71.8798 304.389 71.8939 304.382 71.9111C302.909 76.7124 301.676 82.4358 297.662 85.9996C295.685 87.7531 293.191 88.9022 290.506 89.2957C288.389 89.5991 286.315 89.2005 284.185 89.1172C275.897 88.7959 273.261 98.8328 278.009 104.057C278.11 104.164 278.318 104.009 278.217 103.89C274.949 99.9454 275.019 94.1267 279.349 90.8009C282.826 88.1474 287.649 90.325 291.707 89.3849C300.134 87.4513 302.878 79.0268 304.54 71.9468Z" fill="#263238"/>
<path d="M306.442 141.086C309.54 139.849 314.818 134.976 315.615 133.352C316.411 131.728 307.934 122.976 305.949 123.149C303.964 123.321 293.907 128.241 292.282 131.091C290.657 133.941 303.231 142.377 306.442 141.086Z" fill="#FFBE9D"/>
<path d="M295.715 127.164C297.485 127.402 296.176 129.223 296.176 129.223C296.176 129.223 298.705 127.027 300.45 127.932C302.194 128.836 300.45 130.96 300.33 131.115C300.462 131.002 302.858 129.038 304.495 130.121C306.133 131.204 304.129 133.132 303.996 133.251C304.16 133.179 306.354 132.281 307.397 133.364C309.186 135.232 303.636 137.677 302.972 139.617C302.972 139.617 306.341 141.027 306.43 141.086C306.518 141.146 301.196 143.52 298.465 142.55C298.07 142.409 297.735 142.149 297.516 141.809C297.296 141.47 297.203 141.071 297.251 140.676C297.251 140.676 295.658 141.64 294.343 140.824C293.673 140.408 293.787 139.04 293.787 139.04C293.413 139.239 292.989 139.338 292.559 139.325C292.13 139.313 291.713 139.189 291.353 138.968C290.462 138.344 290.721 137.052 290.721 137.052C290.721 137.052 289.122 137.189 288.426 136.273C287.029 134.399 291.935 126.659 295.715 127.164Z" fill="#FFBE9D"/>
<path d="M290.733 136.833C290.733 136.833 290.676 136.833 290.683 136.833C291.652 133.782 293.588 131.084 296.233 129.098C296.321 129.033 296.46 129.14 296.378 129.223C294.114 131.488 292.212 134.052 290.733 136.833Z" fill="#FFA172"/>
<path d="M293.755 139.052C293.755 139.088 293.685 139.052 293.698 139.022C294.81 135.688 297.153 132.839 300.304 130.99C300.418 130.931 300.582 130.99 300.462 131.062C298.382 132.406 295.108 136.434 293.755 139.052Z" fill="#FFA172"/>
<path d="M304.268 133.203C301.208 135.035 299.078 137.612 297.314 140.551C297.314 140.592 297.238 140.551 297.245 140.515C297.7 138.855 299.046 137.094 300.216 135.803C301.275 134.588 302.655 133.657 304.217 133.102C304.261 133.078 304.337 133.161 304.268 133.203Z" fill="#263238"/>
<path d="M296.176 129.222C296.709 128.845 297.276 128.513 297.87 128.229C298.437 127.934 299.076 127.786 299.723 127.8C300.018 127.821 300.295 127.944 300.5 128.145C300.701 128.356 300.844 128.609 300.917 128.883C300.963 129.161 300.947 129.445 300.868 129.717C300.79 129.989 300.651 130.242 300.462 130.46L299.59 131.566L300.816 130.817C301.361 130.481 301.958 130.228 302.586 130.067C302.874 129.981 303.178 129.952 303.479 129.983C303.779 130.013 304.069 130.103 304.331 130.245C304.571 130.382 304.753 130.592 304.849 130.84C304.944 131.087 304.947 131.359 304.856 131.608C304.644 132.164 304.283 132.658 303.806 133.042L302.542 134.154L304.122 133.5C304.563 133.317 305.026 133.188 305.501 133.113C305.946 133.027 306.408 133.068 306.828 133.232C307.014 133.313 307.171 133.441 307.283 133.602C307.395 133.763 307.456 133.95 307.46 134.142C307.409 134.579 307.225 134.992 306.929 135.332C306.309 136.075 305.626 136.77 304.887 137.409C304.527 137.748 304.167 138.087 303.825 138.438C303.458 138.775 303.169 139.18 302.978 139.628C303.214 139.209 303.534 138.837 303.92 138.533C304.293 138.206 304.679 137.897 305.064 137.587C305.863 136.981 306.6 136.306 307.264 135.57C307.633 135.177 307.87 134.691 307.947 134.172C307.959 133.885 307.88 133.601 307.722 133.356C307.563 133.11 307.332 132.914 307.056 132.792C306.537 132.579 305.963 132.515 305.406 132.607C304.876 132.678 304.36 132.817 303.87 133.018L304.179 133.47C304.751 133.023 305.187 132.442 305.444 131.786C305.583 131.421 305.583 131.021 305.444 130.656C305.287 130.304 305.02 130.005 304.679 129.799C304.349 129.618 303.983 129.504 303.604 129.465C303.225 129.426 302.842 129.463 302.479 129.573C301.789 129.755 301.135 130.042 300.544 130.424L300.898 130.775C301.123 130.497 301.279 130.176 301.357 129.834C301.434 129.493 301.431 129.14 301.347 128.8C301.246 128.463 301.052 128.157 300.785 127.913C300.51 127.669 300.151 127.527 299.773 127.515C299.074 127.536 298.394 127.742 297.814 128.11C297.225 128.421 296.676 128.794 296.176 129.222Z" fill="#263238"/>
<path d="M304.072 123.684C304.072 123.684 289.785 123.684 292.51 128.919C293.319 130.484 298.629 135.993 299.824 135.012C301.373 133.744 299.609 131.055 298.225 129.532C298.225 129.532 303.08 130.186 304.546 127.152C304.816 126.589 304.915 125.967 304.832 125.355C304.748 124.742 304.485 124.164 304.072 123.684Z" fill="#FFBE9D"/>
<path d="M292.313 128.468C292.552 129.119 292.893 129.733 293.325 130.289C293.736 130.855 294.188 131.394 294.678 131.901C295.641 132.936 296.699 133.889 297.838 134.751C298.144 134.979 298.483 135.165 298.843 135.304C299.044 135.382 299.259 135.416 299.476 135.406C299.599 135.4 299.721 135.376 299.836 135.334C299.946 135.287 300.049 135.225 300.139 135.15C300.466 134.873 300.677 134.495 300.734 134.085C300.776 133.711 300.75 133.332 300.658 132.966C300.468 132.276 300.154 131.622 299.728 131.033C299.325 130.452 298.877 129.899 298.388 129.379L298.154 129.765C298.711 129.816 299.272 129.816 299.83 129.765C300.384 129.725 300.932 129.634 301.467 129.492C301.999 129.34 302.506 129.118 302.971 128.831C303.434 128.548 303.834 128.182 304.147 127.754C303.785 128.131 303.357 128.447 302.883 128.688C302.41 128.921 301.906 129.093 301.385 129.2C300.346 129.414 299.273 129.44 298.224 129.277L297.592 129.176L297.996 129.67C298.446 130.187 298.858 130.731 299.229 131.3C299.607 131.849 299.889 132.452 300.063 133.085C300.163 133.359 300.185 133.653 300.128 133.937C300.072 134.222 299.939 134.488 299.741 134.709C299.4 135.043 298.698 134.68 298.154 134.311C297.611 133.942 297.042 133.478 296.498 133.032C295.954 132.585 295.43 132.127 294.924 131.651C293.881 130.726 293 129.652 292.313 128.468Z" fill="#FFA172"/>
<path d="M274.132 245.114C275.321 245.489 309.299 245.393 310.595 244.62C311.082 244.334 311.36 239.67 311.518 234.036C311.556 232.846 311.581 231.561 311.606 230.282C311.606 228.77 311.651 227.235 311.663 225.748C311.701 219.073 311.606 213.188 311.606 213.188H289.481V225.748V230.24L289.595 233.994C289.595 233.994 276.604 239.503 275.283 240.497C273.962 241.491 272.944 244.727 274.132 245.114Z" fill="#00848C"/>
<path d="M274.133 245.114C275.321 245.489 309.3 245.394 310.595 244.621C311.082 244.335 311.36 239.67 311.518 234.036C311.556 232.846 311.582 231.561 311.607 230.282C311.607 228.771 311.651 227.236 311.664 225.749H289.494V230.24L289.608 233.995C289.608 233.995 276.617 239.504 275.296 240.497C273.975 241.491 272.944 244.728 274.133 245.114Z" fill="#E9E9E9"/>
<path d="M274.032 245.114C274.803 245.358 289.279 245.406 299.817 245.198C302.251 245.15 304.482 245.085 306.284 245.013C308.762 244.906 310.425 244.781 310.709 244.62C311.303 244.258 311.594 237.416 311.727 230.199H289.481L289.601 233.971C289.601 233.971 276.535 239.516 275.201 240.515C273.867 241.515 272.837 244.763 274.032 245.114Z" fill="#FFD76B"/>
<path d="M318.984 124.447C318.984 124.447 312.991 180.099 312.865 180.801C312.865 180.896 312.802 181.991 312.745 183.716C312.422 193.295 311.626 223.168 311.626 223.168H287.231C287.231 223.168 288.824 187.786 289.76 179.528C290.923 169.003 298.262 124.447 298.262 124.447H318.984Z" fill="#00848C"/>
<path d="M318.985 124.447C318.985 124.447 312.992 180.099 312.865 180.801C312.865 180.896 312.802 181.991 312.745 183.716L301.246 124.447H318.985Z" fill="#005A60"/>
<path d="M337.443 244.102C338.707 243.977 369.6 230.698 370.441 229.49C370.757 229.032 368.962 224.683 366.648 219.489C366.149 218.364 365.675 217.18 365.08 216.038C364.334 214.592 363.57 213.158 362.811 211.784C359.549 205.805 356.553 200.908 356.553 200.908L336.956 209.238L342.62 220.125L344.94 224.593L346.685 227.967C346.685 227.967 337.266 238.033 336.501 239.449C335.736 240.865 336.204 244.227 337.443 244.102Z" fill="#00848C"/>
<path d="M337.443 244.101C338.707 243.976 369.6 230.697 370.441 229.489C370.757 229.031 368.962 224.682 366.648 219.488C366.149 218.363 365.675 217.179 365.08 216.037C364.334 214.591 363.569 213.158 362.811 211.783C356.767 214.33 348.05 217.923 342.626 220.148L344.946 224.616L346.691 227.99C346.691 227.99 337.272 238.056 336.507 239.472C335.742 240.888 336.204 244.226 337.443 244.101Z" fill="#E9E9E9"/>
<path d="M337.367 244.18C338.631 244.055 369.702 230.704 370.549 229.491C370.941 228.931 368.197 222.589 365.156 215.961L344.928 224.594L346.685 227.985C346.685 227.985 337.203 238.1 336.438 239.534C335.673 240.967 336.115 244.305 337.367 244.18Z" fill="#FFD76B"/>
<path d="M298.242 124.445C298.242 124.445 299.848 132.483 305.828 136.576C305.828 136.576 318.964 177.955 320.677 182.703C323.617 190.877 339.433 218.579 339.433 218.579L363.841 208.714C363.841 208.714 345.23 177.884 343.195 175.504C341.854 173.927 331.816 140.401 331.955 139.515C333.421 129.234 328.238 124.421 328.238 124.421L298.242 124.445Z" fill="#00848C"/>
<path d="M298.717 112.38L297.187 127.314C297.187 127.314 323.946 126.439 330.293 125.731C330.293 125.731 322.587 98.3156 315.374 91.6283C311.771 88.2847 307.788 88.7309 305.323 91.2952C304.691 91.9437 297.465 101.927 296.839 105.64C296.302 108.912 298.717 112.38 298.717 112.38Z" fill="#FFD76B"/>
<path d="M312.264 90.6927C312.087 91.1865 309.198 94.2624 306.745 93.9411C305.949 93.834 306.366 89.705 306.366 89.705L306.322 89.3957L305.69 85.0346L311.328 82.2741L312.144 81.9111C312.144 81.9111 312.226 83.101 312.308 84.6122C312.308 84.6836 312.308 84.755 312.308 84.8264V85.0703C312.308 85.2964 312.34 85.5225 312.346 85.7486C312.353 85.9747 312.346 86.0937 312.346 86.2781V86.8195C312.412 88.1108 312.385 89.4049 312.264 90.6927Z" fill="#FFBE9D"/>
<path d="M312.359 84.6111C311.782 85.767 310.944 86.7911 309.905 87.6128C308.866 88.4346 307.65 89.0343 306.341 89.3708L305.709 85.0097L311.348 82.2492L312.163 81.8862C312.163 81.8862 312.258 83.1118 312.359 84.6111Z" fill="#FFA172"/>
<path d="M300.203 77.6813C298.717 85.2669 303.364 86.9566 305.121 87.2541C306.695 87.5278 312.106 88.2596 314.414 80.8583C316.721 73.4571 313.44 70.4109 309.868 69.6137C306.297 68.8164 301.682 70.0896 300.203 77.6813Z" fill="#FFBE9D"/>
<path d="M301.613 76.4916C301.809 76.4916 301.986 76.4559 302.176 76.438C302.378 76.4445 302.578 76.3904 302.745 76.2833C302.788 76.2386 302.815 76.1824 302.821 76.1225C302.828 76.0627 302.815 76.0024 302.783 75.9502C302.701 75.8571 302.593 75.7865 302.472 75.7457C302.351 75.7049 302.22 75.6954 302.094 75.7181C301.83 75.7272 301.578 75.8266 301.386 75.9978C301.346 76.0401 301.32 76.0922 301.311 76.148C301.302 76.2037 301.309 76.2608 301.333 76.3126C301.357 76.3644 301.396 76.4087 301.446 76.4404C301.495 76.4721 301.554 76.4898 301.613 76.4916Z" fill="#263238"/>
<path d="M307.043 77.242C306.86 77.2004 306.689 77.129 306.506 77.0754C306.308 77.0377 306.129 76.9418 305.994 76.8017C305.962 76.7492 305.949 76.6883 305.957 76.6282C305.965 76.5681 305.993 76.5121 306.038 76.4686C306.141 76.397 306.262 76.3518 306.39 76.3372C306.517 76.3226 306.646 76.3392 306.765 76.3853C307.025 76.4461 307.25 76.5969 307.397 76.8077C307.427 76.8585 307.441 76.9166 307.437 76.9748C307.433 77.033 307.41 77.0887 307.372 77.135C307.335 77.1813 307.283 77.2161 307.225 77.2351C307.166 77.2542 307.103 77.2565 307.043 77.242Z" fill="#263238"/>
<path d="M305.646 78.8359C305.646 78.8359 305.684 78.8359 305.646 78.8835C305.557 79.4011 305.538 80.0139 306.019 80.246C306.019 80.246 306.019 80.2817 306.019 80.2757C305.437 80.121 305.469 79.3119 305.646 78.8359Z" fill="#263238"/>
<path d="M306.215 78.3548C307.112 78.4024 306.942 80.092 306.107 80.0444C305.273 79.9968 305.462 78.3131 306.215 78.3548Z" fill="#263238"/>
<path d="M306.556 78.4743C306.708 78.5873 306.841 78.7658 307.03 78.8015C307.22 78.8372 307.429 78.6825 307.587 78.5219C307.587 78.8491 307.391 79.1644 307.018 79.1823C306.645 79.2001 306.468 78.8848 306.385 78.5516C306.436 78.5278 306.499 78.4326 306.556 78.4743Z" fill="#263238"/>
<path d="M302.573 78.3599C302.573 78.3599 302.529 78.3599 302.523 78.4015C302.491 78.9251 302.365 79.52 301.846 79.6509C301.846 79.6509 301.846 79.6866 301.846 79.6807C302.466 79.6509 302.63 78.8596 302.573 78.3599Z" fill="#263238"/>
<path d="M302.125 77.7716C301.24 77.6348 301.012 79.3125 301.834 79.4434C302.656 79.5743 302.877 77.8906 302.125 77.7716Z" fill="#263238"/>
<path d="M301.739 77.8349C301.587 77.9063 301.423 78.055 301.252 78.0432C301.081 78.0313 300.936 77.829 300.835 77.6445C300.784 77.9658 300.835 78.3168 301.17 78.418C301.505 78.5191 301.72 78.2573 301.846 77.948C301.84 77.9301 301.802 77.8052 301.739 77.8349Z" fill="#263238"/>
<path d="M305.342 82.8986C305.203 83.0116 305.064 83.1782 304.855 83.1841C304.65 83.1692 304.449 83.1146 304.267 83.0235C304.267 83.0235 304.229 83.0235 304.267 83.0235C304.341 83.1304 304.444 83.2167 304.565 83.2733C304.686 83.3298 304.821 83.3545 304.956 83.3448C305.071 83.3187 305.175 83.2632 305.258 83.1844C305.34 83.1055 305.398 83.0065 305.424 82.8986C305.424 82.8986 305.361 82.8807 305.342 82.8986Z" fill="#263238"/>
<path d="M303.243 80.7759C303.14 81.1503 303.057 81.5296 302.997 81.9123C302.997 81.948 303.085 81.9718 303.218 81.9956C303.55 82.0873 303.902 82.092 304.236 82.0092C304.57 81.9263 304.874 81.7591 305.114 81.5256C305.118 81.5184 305.12 81.5103 305.119 81.5023C305.118 81.4942 305.115 81.4866 305.11 81.4803C305.104 81.474 305.097 81.4693 305.089 81.4668C305.081 81.4642 305.072 81.464 305.064 81.4661C304.528 81.7364 303.914 81.8366 303.313 81.7516C303.313 81.6505 303.711 80.4487 303.648 80.4368C303.341 80.4323 303.035 80.4663 302.738 80.5379C303.117 78.9256 303.762 77.3847 304.116 75.7783C304.116 75.767 304.113 75.7559 304.106 75.7466C304.1 75.7372 304.09 75.73 304.079 75.7261C304.068 75.7221 304.055 75.7216 304.044 75.7246C304.032 75.7275 304.022 75.7338 304.014 75.7426C303.266 77.3765 302.692 79.0765 302.301 80.8176C302.244 81.0139 303.079 80.8235 303.243 80.7759Z" fill="#263238"/>
<path d="M303.281 81.7141C303.444 82.049 303.697 82.3381 304.015 82.553C304.2 82.6719 304.422 82.7304 304.647 82.7196C305.114 82.7196 305.216 82.3269 305.216 81.9818C305.213 81.7992 305.188 81.6175 305.14 81.4404C304.567 81.7167 303.916 81.8126 303.281 81.7141Z" fill="#263238"/>
<path d="M304.015 82.553C304.2 82.6719 304.422 82.7304 304.647 82.7196C305.115 82.7196 305.216 82.3269 305.216 81.9818C304.976 81.933 304.726 81.963 304.508 82.067C304.289 82.171 304.115 82.3426 304.015 82.553Z" fill="#FF9ABB"/>
<path d="M304.596 69.3584C304.596 69.3584 311.233 66.5562 314.963 70.2211C318.693 73.886 314.963 79.2584 314.963 79.2584C314.963 79.2584 316.594 72.4581 313.067 70.5543C309.539 68.6504 304.596 69.3584 304.596 69.3584Z" fill="#FFD76B"/>
<path d="M314.338 80.9058C313.826 80.6499 313.394 80.2737 313.083 79.814C312.771 79.3542 312.592 78.8264 312.561 78.282C311.167 77.6533 309.975 76.686 309.11 75.4798C309.16 75.6404 309.508 76.7887 309.704 77.3658C304.596 76.2949 303.142 72.5466 303.142 72.5466C302.129 73.3579 301.325 74.3751 300.791 75.5214C300.791 75.5214 300.86 72.5467 302.554 70.619C304.628 68.2392 311.348 67.8049 314.338 71.0771C317.555 74.6468 314.338 80.9058 314.338 80.9058Z" fill="#263238"/>
<path d="M305.829 76.4567C306.639 76.9117 307.517 77.2487 308.434 77.4562C307.004 77.0373 305.726 76.2525 304.742 75.1894C304.325 74.7344 303.968 74.2328 303.68 73.6961C303.34 73.1189 303.125 72.4839 303.048 71.8279C303.045 71.8202 303.039 71.8136 303.032 71.8089C303.024 71.8043 303.016 71.8018 303.007 71.8018C302.998 71.8018 302.989 71.8043 302.982 71.8089C302.975 71.8136 302.969 71.8202 302.966 71.8279C302.965 72.482 303.08 73.1316 303.307 73.7497C303.558 74.3527 303.924 74.9073 304.388 75.3858C304.805 75.8091 305.284 76.1738 305.811 76.4686" fill="#263238"/>
<path d="M313.022 80.5614C313.022 80.5614 315.045 78.3244 316.139 79.0205C317.233 79.7166 315.545 83.0781 314.135 83.4351C313.958 83.4911 313.771 83.5129 313.584 83.4993C313.398 83.4857 313.217 83.4369 313.051 83.3558C312.885 83.2748 312.738 83.1631 312.619 83.0274C312.5 82.8918 312.412 82.735 312.359 82.5664L313.022 80.5614Z" fill="#FFBE9D"/>
<path d="M317.656 95.9277C317.922 102.21 307.687 121.303 304.381 123.932C299.627 127.746 283.331 129.733 278.634 130.399C276.592 130.691 275.473 116.501 277.66 116.156C282.433 115.395 293.666 113.437 295.057 112.586C296.448 111.736 303.768 104.126 308.459 98.9442C314.78 92.001 317.524 92.7447 317.656 95.9277Z" fill="#FFBE9D"/>
<path d="M271.984 118.234C272.881 117.818 272.654 117.371 270.915 117.044C269.177 116.717 261.996 116.735 262.198 114.373C262.4 112.011 272.534 112.112 275.378 112.891C278.223 113.671 282.541 115.866 282.541 115.866C280.562 116.205 275.853 117.49 271.984 118.234Z" fill="#FFBE9D"/>
<path d="M283.912 129.64C278.223 130.592 271.143 131.883 265.2 129.64C264.534 129.407 263.97 128.968 263.601 128.396C260.914 127.439 260.592 125.963 260.592 125.963C258.386 124.351 258.272 122.792 258.272 122.792C258.272 122.792 255.111 121.638 255.566 119.734C256.04 117.604 260.352 119.645 263.449 119.407C270.555 118.853 280.517 116.194 282.521 115.837L283.912 129.64Z" fill="#FFBE9D"/>
<path d="M271.345 123.744C269.269 123.93 267.182 123.98 265.099 123.893C262.826 123.67 260.573 123.288 258.36 122.75C258.347 122.749 258.334 122.752 258.323 122.759C258.312 122.766 258.303 122.776 258.3 122.788C258.296 122.801 258.297 122.813 258.302 122.825C258.307 122.836 258.317 122.846 258.329 122.851C262.494 124.295 267.001 124.634 271.358 123.833C271.452 123.827 271.452 123.744 271.345 123.744Z" fill="#FFA172"/>
<path d="M272.812 129.895C269.329 129.794 267.122 129.3 263.633 128.396C263.633 128.396 263.633 128.396 263.633 128.425C267.514 129.871 269.095 129.978 272.837 130.008C272.951 130.008 272.944 129.895 272.812 129.895Z" fill="#FFA172"/>
<path d="M309.748 96.766C315.994 90.4178 319.597 93.0415 317.473 100.508C316.025 105.357 314.286 110.124 312.264 114.787L299.836 107.088C299.836 107.088 305.753 100.829 309.748 96.766Z" fill="#FFD76B"/>
<path d="M309.123 97.4697C308.289 98.2967 307.429 99.0999 306.595 99.909C306.841 99.4807 307.063 99.0404 307.271 98.5882C307.075 98.9333 306.86 99.2665 306.639 99.6116L306.355 100.105C306.336 100.142 306.315 100.178 306.291 100.212C305.659 100.843 304.964 101.474 304.319 102.122C303.548 102.896 302.796 103.687 302.043 104.502C301.291 105.317 300.495 106.287 299.685 107.078C299.616 107.144 300.779 107.768 300.886 107.84C300.994 107.911 301.095 107.84 300.975 107.768C300.855 107.697 299.964 107.037 299.951 107.025C300.709 106.227 301.557 105.508 302.334 104.734C303.112 103.961 303.895 103.199 304.654 102.414C306.197 100.825 307.644 99.1475 309.174 97.5471L309.123 97.4697Z" fill="#FFC21F"/>
<path d="M317.05 104.705C316.797 105.05 316.525 105.389 316.297 105.746C316.203 105.895 316.108 106.044 316.007 106.192C316.5 104.879 316.989 103.563 317.473 102.242C317.473 102.242 317.473 102.212 317.473 102.242C316.557 104.36 315.634 106.478 314.761 108.614C313.853 110.624 313.051 112.675 312.359 114.76C311.981 114.543 311.583 114.357 311.171 114.206C311.555 114.521 311.98 114.789 312.435 115.004C313.437 112.908 314.323 110.765 315.09 108.584C315.324 107.989 315.539 107.394 315.766 106.799C315.969 106.448 316.196 106.121 316.399 105.782C316.601 105.443 316.847 105.056 317.062 104.687C317.1 104.705 317.062 104.657 317.05 104.705Z" fill="#FFC21F"/>
<path d="M188.299 62.7012H128.788V118.71H188.299V62.7012Z" fill="#FFD76B"/>
<path d="M158.588 87.4533C166.869 93.2005 178.084 97.5021 181.131 96.0682C184.178 94.6344 190.272 81.2836 190.284 77.9756C190.284 76.5418 180.17 74.7867 179.007 75.8695C177.843 76.9523 175.846 85.2043 175.214 85.9242C174.752 86.4478 165.877 84.2108 160.289 83.1279C156.717 82.4318 154.22 84.419 158.588 87.4533Z" fill="#FFBE9D"/>
<path d="M189.962 79.8316C190.468 78.4513 192.49 71.2464 192.535 69.3306C192.579 67.4149 192.288 61.8996 190.733 61.7152C189.178 61.5308 189.127 63.155 189.127 63.155C189.127 63.155 188.615 60.8406 187.029 60.7752C185.442 60.7097 185.455 63.2502 185.455 63.2502C185.455 63.2502 184.74 60.912 183.16 60.9715C181.579 61.031 182.041 63.5655 182.041 63.5655C182.041 63.5655 181.491 61.3999 180.208 61.9651C178.665 62.6433 180.151 66.5284 179.936 68.6405C179.885 69.1164 178.185 78.2788 178.185 78.2788L189.962 79.8316Z" fill="#FFBE9D"/>
<path d="M182.003 63.3679C183.09 66.2237 183.04 67.6516 182.344 70.5728C182.344 70.6264 182.42 70.6621 182.439 70.6026C183.394 67.8063 183.704 66.0214 182.148 63.3084C182.073 63.1775 181.952 63.2311 182.003 63.3679Z" fill="#FFA172"/>
<path d="M185.367 63.0609C186.22 66.125 186.176 67.6778 185.689 70.7954C185.689 70.837 185.759 70.8549 185.771 70.7954C186.517 67.7849 186.814 66 185.537 63.0609C185.48 62.8944 185.329 62.9063 185.367 63.0609Z" fill="#FFA172"/>
<path d="M189.089 63.315C189.69 66.3314 189.721 68.033 188.836 70.9959C188.836 71.0084 188.841 71.0206 188.848 71.0307C188.856 71.0408 188.867 71.0484 188.88 71.0523C188.892 71.0563 188.906 71.0564 188.918 71.0527C188.931 71.049 188.942 71.0416 188.95 71.0316C190.106 68.5831 190.192 65.805 189.19 63.2972C189.134 63.1246 189.089 63.1246 189.089 63.315Z" fill="#FFA172"/>
<path d="M177.71 80.1524C176.716 78.5771 175.848 76.9345 175.112 75.2381C174.55 73.6079 174.847 66.8135 176.408 66.7957C178.425 66.76 179.076 70.7164 179.126 72.6917C179.126 72.6917 183.792 72.6203 184.911 75.363C186.03 78.1057 177.71 80.1524 177.71 80.1524Z" fill="#FFBE9D"/>
<path d="M176.964 66.9585C178.829 68.1484 178.715 70.7781 178.918 72.6879C178.919 72.716 178.928 72.7433 178.944 72.7676C178.959 72.7918 178.98 72.8123 179.005 72.8274C179.031 72.8425 179.059 72.8518 179.089 72.8544C179.119 72.857 179.149 72.853 179.177 72.8426C181.136 72.9318 183.867 73.5982 184.967 75.2522C184.97 75.2573 184.974 75.2617 184.979 75.2654C184.984 75.269 184.989 75.2718 184.995 75.2734C185.001 75.2751 185.007 75.2756 185.013 75.275C185.019 75.2745 185.025 75.2728 185.03 75.27C185.036 75.2673 185.041 75.2636 185.044 75.2591C185.048 75.2546 185.051 75.2495 185.053 75.244C185.055 75.2384 185.055 75.2327 185.055 75.2269C185.054 75.2212 185.052 75.2156 185.049 75.2105C184.126 73.2888 181.497 72.4261 179.36 72.4559C179.189 70.4925 179.177 67.8807 176.989 66.9407C176.964 66.9347 176.958 66.9525 176.964 66.9585Z" fill="#FFA172"/>
<path d="M171.44 96.1521L175.068 85.3417C175.068 85.3417 166.048 83.0155 160.409 82.5514C154.77 82.0873 152.684 83.9495 159.315 88.614C163.19 91.3564 167.239 93.8738 171.44 96.1521Z" fill="#00848C"/>
<path d="M137.619 118.719H171.869C172.015 117.487 166.768 91.2971 160.604 82.8726C159.903 81.9206 153.916 81.2245 151.716 83.5984C140.072 96.1877 137.341 118.391 137.619 118.719Z" fill="#00848C"/>
<path d="M159.492 87.6798C157.646 88.3045 154.061 85.9247 152.506 83.8543C152.405 83.7115 152.456 82.0694 152.424 80.112C152.424 78.9221 152.342 77.5775 152.197 76.3638L160.509 77.3395C160.227 78.9113 160.152 80.5101 160.288 82.0991C160.311 82.2665 160.349 82.4316 160.402 82.593C160.402 82.593 160.402 82.6465 160.402 82.6762C160.705 83.5984 161.274 87.0789 159.492 87.6798Z" fill="#FFBE9D"/>
<path d="M160.402 82.593C158.893 82.6546 157.388 82.3889 156.005 81.8164C154.621 81.2439 153.397 80.3798 152.424 79.2909C152.424 78.3271 152.336 77.3097 152.222 76.3638L160.51 77.3395C160.227 78.9113 160.153 80.5101 160.288 82.0991C160.31 82.2668 160.348 82.4321 160.402 82.593Z" fill="#FFA172"/>
<path d="M150.034 68.0114C149.446 70.7958 151.779 78.4707 154.01 80.0176C157.234 82.2665 162.108 82.0583 164.036 78.4945C165.933 75.0378 162.671 65.0961 160.244 63.7277C156.615 61.7049 150.913 63.9003 150.034 68.0114Z" fill="#FFBE9D"/>
<path d="M157.355 72.1387C157.355 72.1387 157.317 72.1744 157.324 72.1982C157.494 72.7098 157.602 73.3226 157.153 73.6261V73.6558C157.754 73.4119 157.602 72.5789 157.355 72.1387Z" fill="#263238"/>
<path d="M156.698 71.7297C155.8 71.9023 156.23 73.586 157.064 73.4313C157.899 73.2766 157.482 71.587 156.698 71.7297Z" fill="#263238"/>
<path d="M160.705 71.2051C160.705 71.2051 160.756 71.2051 160.762 71.2467C160.876 71.7703 161.104 72.3533 161.647 72.4366C161.647 72.4366 161.647 72.4664 161.647 72.4723C161.015 72.5021 160.724 71.7227 160.705 71.2051Z" fill="#263238"/>
<path d="M161.059 70.5494C161.938 70.2817 162.437 71.9535 161.628 72.1975C160.819 72.4414 160.326 70.7934 161.059 70.5494Z" fill="#263238"/>
<path d="M155.794 71.1163C156.013 70.9998 156.224 70.8706 156.426 70.7296C156.667 70.5808 156.875 70.4856 156.995 70.2179C157.019 70.1405 157.015 70.0578 156.985 69.9826C156.954 69.9074 156.898 69.8438 156.825 69.8014C156.665 69.7392 156.491 69.7179 156.32 69.7398C156.149 69.7618 155.987 69.8262 155.851 69.9264C155.552 70.0915 155.327 70.3539 155.219 70.6641C155.198 70.7359 155.199 70.8119 155.222 70.8831C155.246 70.9543 155.291 71.0175 155.351 71.0653C155.412 71.1131 155.486 71.1433 155.565 71.1523C155.643 71.1614 155.723 71.1489 155.794 71.1163Z" fill="#263238"/>
<path d="M161.54 69.5443C161.281 69.5443 161.041 69.5443 160.782 69.5443C160.514 69.5714 160.243 69.5172 160.01 69.3896C159.946 69.3355 159.903 69.2631 159.887 69.1835C159.871 69.104 159.883 69.0217 159.922 68.9493C160.023 68.8176 160.159 68.7134 160.317 68.6476C160.475 68.5817 160.648 68.5565 160.82 68.5745C161.171 68.5585 161.516 68.6668 161.787 68.8779C161.842 68.9301 161.88 68.9958 161.897 69.0675C161.915 69.1393 161.91 69.2141 161.884 69.2835C161.859 69.353 161.813 69.4142 161.752 69.4603C161.691 69.5064 161.618 69.5355 161.54 69.5443Z" fill="#263238"/>
<path d="M158.373 76.9229C158.538 77.0181 158.715 77.1549 158.917 77.1251C159.123 77.0763 159.315 76.9848 159.479 76.8574C159.479 76.8574 159.524 76.8574 159.479 76.8574C159.428 76.9786 159.341 77.0838 159.229 77.1615C159.118 77.2392 158.986 77.2863 158.847 77.2977C158.729 77.2919 158.614 77.2548 158.517 77.1907C158.42 77.1265 158.344 77.0378 158.297 76.9348C158.31 76.9288 158.348 76.911 158.373 76.9229Z" fill="#263238"/>
<path d="M158.557 75.226C158.75 75.4019 158.98 75.5378 159.233 75.6249C159.486 75.712 159.755 75.7484 160.023 75.7317C160.258 75.7219 160.49 75.6798 160.712 75.6068L160.839 75.5652L160.952 75.5176C160.981 75.5071 161.004 75.4877 161.019 75.4628C161.034 75.4379 161.04 75.4089 161.035 75.3807V75.3272V75.2855C160.94 74.881 160.744 74.2741 160.744 74.2741C160.921 74.3158 161.799 74.4704 161.736 74.2741C161.222 72.4729 160.517 70.7249 159.631 69.0563C159.6 69.0028 159.511 69.0563 159.53 69.092C159.992 70.7639 160.794 72.3405 161.262 74.0123C160.946 73.9516 160.623 73.9336 160.301 73.9588C160.244 73.9885 160.706 75.1189 160.731 75.3034C160.39 75.4162 160.028 75.4628 159.668 75.4403C159.307 75.4178 158.955 75.3267 158.632 75.1725C158.55 75.1487 158.512 75.1903 158.557 75.226Z" fill="#263238"/>
<path d="M160.409 75.5538C160.23 75.8863 159.965 76.1708 159.637 76.3808C159.449 76.4922 159.227 76.5443 159.005 76.5295C158.537 76.5295 158.449 76.113 158.462 75.768C158.472 75.5847 158.503 75.4031 158.556 75.2266C159.12 75.5215 159.77 75.6363 160.409 75.5538Z" fill="#263238"/>
<path d="M159.637 76.3566C159.449 76.4681 159.227 76.5202 159.005 76.5053C158.537 76.5053 158.449 76.0889 158.462 75.7438C158.702 75.7038 158.951 75.7428 159.165 75.8544C159.379 75.9659 159.546 76.1432 159.637 76.3566Z" fill="#FF9ABB"/>
<path d="M149.845 74.7277C152.159 74.4957 152.861 71.7529 151.938 69.7598C151.938 69.7598 158.152 69.498 157.57 64.8633C158.116 65.4134 158.797 65.8283 159.553 66.0712C160.31 66.3141 161.118 66.3774 161.907 66.2555L162.906 67.8322C163.5 67.5585 163.848 65.7796 162.071 64.7324C161.697 63.347 160.768 62.1513 159.479 61.3947C158.922 61.0825 158.28 60.9288 157.632 60.952C156.984 60.9752 156.356 61.1744 155.826 61.5256C154.632 60.9827 153.26 60.8974 152.001 61.2876C151.348 61.5046 150.759 61.8649 150.283 62.3388C149.807 62.8126 149.457 63.3864 149.264 64.0125C149.264 64.0125 146.362 65.0537 146.23 67.1539C146.181 67.7483 146.266 68.3456 146.478 68.9072C146.691 69.4688 147.026 69.9822 147.462 70.4143C147.462 70.4143 146.83 71.3305 147.563 72.9785C148 74.0435 149.15 74.7991 149.845 74.7277Z" fill="#263238"/>
<path d="M157.361 64.4761C157.475 64.8409 157.549 65.2157 157.583 65.5946C157.633 65.9659 157.633 66.3418 157.583 66.7131C157.487 67.4499 157.095 68.1244 156.489 68.5991C155.862 69.0538 155.13 69.3636 154.352 69.5034C153.954 69.557 153.562 69.6403 153.164 69.676C152.766 69.7117 152.355 69.7236 151.95 69.7593C152.355 69.7593 152.759 69.789 153.17 69.8069C153.581 69.8247 153.986 69.7414 154.397 69.7057C155.225 69.5914 156.008 69.2801 156.672 68.8014C157.322 68.2799 157.727 67.5378 157.798 66.7369C157.855 65.9608 157.705 65.1835 157.361 64.4761Z" fill="#263238"/>
<path d="M160.991 66.6295C160.288 66.5384 159.606 66.3373 158.974 66.0345C158.664 65.8757 158.381 65.6752 158.133 65.4395C157.876 65.2057 157.649 64.9441 157.457 64.6602C157.558 64.9975 157.732 65.3115 157.969 65.5823C158.208 65.858 158.502 66.0865 158.835 66.2546C159.165 66.4231 159.521 66.5416 159.891 66.6057C160.253 66.6729 160.625 66.6809 160.991 66.6295Z" fill="#263238"/>
<path d="M157.229 75.4888C156.747 75.5627 156.252 75.5079 155.801 75.3305C155.351 75.153 154.962 74.8601 154.679 74.4851C154.397 74.11 154.231 73.6678 154.203 73.2088C154.174 72.7498 154.282 72.2924 154.516 71.8886C154.749 71.4847 155.099 71.1507 155.524 70.9245C155.949 70.6982 156.434 70.5888 156.922 70.6088C157.41 70.6287 157.882 70.7771 158.285 71.0371C158.688 71.2971 159.005 71.6583 159.201 72.0797C159.477 72.6778 159.489 73.3544 159.235 73.9611C158.982 74.5678 158.483 75.0551 157.848 75.3162C157.651 75.3989 157.442 75.4569 157.229 75.4888ZM156.445 70.9612C156.258 70.9906 156.076 71.0405 155.901 71.1099C155.37 71.3259 154.946 71.7245 154.715 72.2245C154.485 72.7245 154.466 73.2884 154.662 73.8011C154.858 74.3139 155.254 74.7371 155.77 74.9846C156.286 75.232 156.883 75.2851 157.439 75.133C157.995 74.9808 158.468 74.635 158.763 74.1658C159.057 73.6967 159.151 73.1395 159.024 72.6077C158.897 72.076 158.56 71.6097 158.081 71.3037C157.602 70.9978 157.017 70.8753 156.445 70.9612Z" fill="#00848C"/>
<path d="M162.982 73.9113C161.995 74.06 160.94 73.2449 160.56 72.0134C160.373 71.4298 160.384 70.8059 160.592 70.2285C160.665 69.9744 160.807 69.7424 161.003 69.555C161.2 69.3675 161.444 69.231 161.713 69.1586C161.982 69.0862 162.266 69.0803 162.539 69.1417C162.811 69.203 163.061 69.3294 163.266 69.5086C163.772 69.8972 164.135 70.426 164.303 71.0198C164.695 72.3228 164.183 73.6079 163.152 73.8875L162.982 73.9113ZM161.939 69.4372H161.812C161.6 69.5027 161.407 69.616 161.252 69.7674C161.097 69.9188 160.983 70.1037 160.921 70.3059C160.746 70.8246 160.746 71.3816 160.921 71.9003C161.268 73.0308 162.229 73.7625 163.076 73.5365C163.924 73.3104 164.341 72.2038 163.993 71.0733C163.845 70.5474 163.524 70.0789 163.076 69.7347C162.921 69.6106 162.739 69.5198 162.542 69.4684C162.346 69.4171 162.14 69.4064 161.939 69.4372Z" fill="#00848C"/>
<path d="M159.201 72.3771L158.911 72.1927C159.201 71.7881 159.96 71.1455 160.763 71.5977L160.58 71.8833C159.865 71.4728 159.227 72.3414 159.201 72.3771Z" fill="#00848C"/>
<path d="M148.196 75.9995L147.855 75.934C147.886 75.7793 148.19 74.4526 148.904 74.1491C149.618 73.8457 154.195 73.0425 154.391 73.0068L154.454 73.3281C153.127 73.5601 149.568 74.2205 149.05 74.4466C148.531 74.6727 148.272 75.6306 148.196 75.9995Z" fill="#00848C"/>
<path d="M152.482 74.2104C152.482 74.2104 150.288 71.902 149.15 72.6695C148.012 73.437 149.89 76.9294 151.375 77.2685C151.563 77.3247 151.761 77.3445 151.958 77.3267C152.154 77.3089 152.344 77.2539 152.518 77.1649C152.691 77.076 152.843 76.9549 152.965 76.8091C153.087 76.6633 153.176 76.4958 153.228 76.3166L152.482 74.2104Z" fill="#FFBE9D"/>
<path d="M149.713 73.6562C149.713 73.6562 149.713 73.6859 149.713 73.6919C150.199 73.8549 150.643 74.1123 151.017 74.4475C151.39 74.7827 151.685 75.1881 151.881 75.6374C151.811 75.5497 151.721 75.4774 151.618 75.4254C151.515 75.3735 151.402 75.343 151.285 75.3363C151.169 75.3295 151.052 75.3465 150.943 75.3861C150.834 75.4258 150.736 75.4872 150.655 75.566C150.648 75.5707 150.643 75.5778 150.642 75.5856C150.641 75.5934 150.643 75.6013 150.648 75.6076C150.653 75.6139 150.661 75.6181 150.669 75.6192C150.677 75.6204 150.686 75.6183 150.692 75.6136C150.862 75.5415 151.05 75.5206 151.233 75.5536C151.415 75.5866 151.582 75.672 151.71 75.798C151.924 76.0103 152.113 76.2437 152.273 76.4941C152.33 76.5715 152.488 76.4941 152.444 76.4168C152.304 75.1912 151.097 73.6264 149.713 73.6562Z" fill="#FFA172"/>
<path d="M149.896 84.4426C145.206 86.3941 129.579 99.9114 128.435 103.303C126.652 108.592 127.803 118.801 128.365 118.712C129.844 118.48 143.075 115.773 142.405 114.464C141.773 113.274 139.934 108.693 139.845 106.73C139.801 105.807 149.846 90.9514 151.9 88.054C154.555 84.3415 153.98 82.747 149.896 84.4426Z" fill="#FFBE9D"/>
<path d="M136.216 113.036C136.657 112.986 137.104 113.067 137.493 113.269C137.882 113.471 138.194 113.783 138.384 114.161C138.384 114.161 139.174 112.513 140.774 112.519C141.596 112.519 142.31 113.762 142.31 113.762C142.513 113.401 142.817 113.1 143.189 112.89C143.561 112.68 143.988 112.57 144.421 112.572C145.553 112.644 146.103 113.869 146.103 113.869C146.103 113.869 147.367 112.923 148.511 113.34C150.8 114.19 151.179 123.347 147.658 124.894C146.014 125.614 146.052 123.371 146.052 123.371C146.052 123.371 145.174 126.583 143.17 126.702C141.166 126.821 141.4 123.918 141.4 123.918C141.4 123.918 140.521 127.024 138.429 126.952C136.336 126.881 137.019 124.007 137.019 124.007C137.019 124.007 135.634 126.095 134.048 125.697C131.431 125.042 134.402 120.711 133.814 118.718H128.403C128.403 118.718 132.341 113.53 136.216 113.036Z" fill="#FFBE9D"/>
<path d="M148.79 115.719C150.984 116.058 153.013 113.214 155.162 113.262C158.064 113.315 156.205 117.932 152.21 118.741H148.797L148.79 115.719Z" fill="#FFBE9D"/>
<path d="M146.217 114.055C146.217 114.025 146.261 114.013 146.268 114.055C147.22 117.153 147.149 120.449 146.065 123.509C146.028 123.604 145.844 123.586 145.863 123.473C146.469 120.367 146.588 117.194 146.217 114.055Z" fill="#FFA172"/>
<path d="M142.31 113.732C142.31 113.696 142.367 113.69 142.38 113.732C143.391 117.156 143.07 120.808 141.476 124.03C141.413 124.137 141.242 124.185 141.299 124.03C142.31 121.811 142.721 116.671 142.31 113.732Z" fill="#FFA172"/>
<path d="M136.81 124.203C138.34 121.044 138.637 117.736 138.428 114.303C138.428 114.256 138.492 114.256 138.504 114.303C139.099 115.957 138.991 118.159 138.751 119.866C138.561 121.456 137.934 122.971 136.93 124.263C136.892 124.34 136.779 124.275 136.81 124.203Z" fill="#FFA172"/>
<path d="M130.186 116.504C130.178 116.511 130.174 116.521 130.174 116.531C130.174 116.541 130.178 116.551 130.186 116.558C130.193 116.565 130.203 116.569 130.214 116.569C130.225 116.569 130.235 116.565 130.243 116.558C131.899 115.213 136.754 111.304 138.429 114.303C138.486 114.404 138.593 114.452 138.562 114.303C138.037 112.441 135.989 111.287 130.186 116.504Z" fill="#FFA172"/>
<path d="M140.269 112.352C139.784 112.474 139.348 112.728 139.017 113.083C138.686 113.438 138.475 113.877 138.41 114.345C138.41 114.411 138.524 114.447 138.549 114.381C138.767 113.735 139.231 113.188 139.851 112.846C140.907 112.334 141.748 113.001 142.292 113.822C142.3 113.841 142.316 113.856 142.336 113.864C142.356 113.871 142.379 113.871 142.399 113.863C142.419 113.856 142.435 113.841 142.443 113.822C142.452 113.803 142.452 113.781 142.443 113.762C142.331 113.315 142.047 112.923 141.645 112.663C141.243 112.402 140.752 112.291 140.269 112.352Z" fill="#FFA172"/>
<path d="M144.523 112.346C144.055 112.338 143.595 112.463 143.204 112.705C142.812 112.947 142.508 113.295 142.33 113.703C142.254 113.839 142.412 113.839 142.424 113.828C143.057 113.233 143.625 112.572 144.574 112.745C145.235 112.948 145.794 113.371 146.148 113.935C146.186 113.982 146.255 113.935 146.243 113.881C146.172 113.484 145.967 113.119 145.656 112.842C145.346 112.565 144.948 112.391 144.523 112.346Z" fill="#FFA172"/>
<path d="M149.302 114.028C149.184 113.736 148.977 113.482 148.707 113.3C148.437 113.117 148.116 113.013 147.784 113.001C147.451 112.989 147.123 113.069 146.838 113.232C146.554 113.394 146.327 113.632 146.186 113.915C146.186 113.915 146.186 113.957 146.186 113.915C146.393 113.727 146.638 113.581 146.908 113.485C147.177 113.389 147.464 113.346 147.752 113.359C148.039 113.371 148.321 113.438 148.58 113.556C148.839 113.675 149.07 113.841 149.258 114.046C149.334 114.129 149.327 114.094 149.302 114.028Z" fill="#FFA172"/>
<path d="M147.551 113.131C147.52 113.131 147.627 113.381 147.659 113.381C149.738 113.351 149.884 117.099 150.276 118.735H150.326C150.44 117.427 150.054 112.59 147.551 113.131Z" fill="#FFA172"/>
<path d="M135.844 93.0402L145.471 99.8643C145.471 99.8643 150.8 92.6356 153.146 87.7808C155.491 82.9259 154.321 80.4628 147.456 84.806C143.412 87.3279 139.534 90.0777 135.844 93.0402Z" fill="#00848C"/>
<path d="M145.067 99.572C145.212 99.6553 145.357 99.7386 145.497 99.8278H145.433C145.819 99.1495 146.242 98.4951 146.66 97.8347C147.077 97.1743 147.526 96.5377 147.975 95.9011C148.423 95.2645 148.885 94.6279 149.365 94.0151C149.846 93.4023 150.326 92.7776 150.845 92.1826C150.472 92.8609 150.061 93.5272 149.643 94.1817C149.226 94.8361 148.784 95.4846 148.341 96.1272C147.899 96.7697 147.437 97.4004 146.969 98.031C146.502 98.6617 146.021 99.2745 145.509 99.8754L145.471 99.9468L145.433 99.917C145.313 99.7921 145.187 99.685 145.067 99.572Z" fill="#005A60"/>
<path d="M160.402 82.5042L158.632 87.1092L152.425 81.6118L150.813 83.5038C150.813 83.5038 157.008 92.3686 157.027 91.9581L158.847 87.9957L161.806 90.6016L161.3 83.8132L160.402 82.5042Z" fill="#1DA9B1"/>
<path d="M109.413 62.7012H49.9025V118.71H109.413V62.7012Z" fill="#00848C"/>
<path d="M96.2769 120.591L96.417 120.657V120.627L96.2705 120.597L96.2769 120.591Z" fill="#FFC727"/>
<path d="M89.766 67.2642C88.4385 65.1759 85.6317 64.2299 82.7112 64.2359C79.7906 64.2418 76.1621 64.9201 74.9736 69.0848C74.0128 72.4641 74.4995 76.0219 73.7093 79.8415C72.9191 83.6612 66.1614 92.1214 72.9318 98.0412C79.0131 103.36 93.8371 102.111 96.0117 93.7813C97.7311 87.1833 90.2148 79.4548 89.8292 76.6466C89.4436 73.8384 91.2199 69.5548 89.766 67.2642Z" fill="#263238"/>
<path d="M90.2527 71.252C89.8523 73.1875 89.876 75.1796 90.3222 77.1063C90.4603 77.6061 90.6732 78.0849 90.9544 78.5283C91.2136 78.9745 91.5043 79.4028 91.7888 79.8253C92.3704 80.6701 92.9457 81.509 93.4703 82.3657C94.5529 84.0414 95.3627 85.8604 95.8725 87.762C96.341 89.6506 96.4097 91.6075 96.0748 93.5211C96.3582 92.5805 96.5257 91.6123 96.5742 90.6356C96.6077 89.6486 96.5272 88.6611 96.334 87.6906C95.9087 85.7229 95.126 83.839 94.0203 82.1218C93.4767 81.2472 92.8825 80.4024 92.2945 79.5694C91.671 78.7873 91.1726 77.9233 90.8153 77.0052C90.5207 76.0807 90.3488 75.1255 90.3033 74.1613C90.2201 73.1935 90.2032 72.2217 90.2527 71.252Z" fill="#263238"/>
<path d="M74.5748 71.9824C74.2271 73.9339 73.9426 75.9032 73.5001 77.8249C73.2743 78.783 72.9851 79.7268 72.6341 80.6509C72.2801 81.5553 71.7744 82.4358 71.3192 83.3401C70.8641 84.2445 70.4279 85.1607 70.0549 86.1007C69.6867 87.0447 69.4116 88.0186 69.2331 89.01C69.0782 90.0082 69.0782 91.0223 69.2331 92.0205C69.4527 93.0239 69.8942 93.9726 70.529 94.8049C70.0096 93.9354 69.6727 92.98 69.5365 91.9908C69.4392 91.0187 69.4946 90.0384 69.7009 89.0814C70.1869 87.1664 70.9193 85.3143 71.8818 83.5662C72.3655 82.6715 72.8001 81.7541 73.1841 80.8175C73.529 79.8698 73.7891 78.8967 73.9616 77.9082C74.3011 75.9474 74.5059 73.968 74.5748 71.9824Z" fill="#263238"/>
<path d="M89.4813 87.5827C98.0976 95.3171 109.154 111.785 107.302 115.242C105.241 119.092 93.2427 108.251 93.268 107.597C93.268 107.103 88.8429 97.0306 85.5178 89.7067C82.1926 82.3828 87.351 85.6669 89.4813 87.5827Z" fill="#FFBE9D"/>
<path d="M93.1916 107.608C92.7997 106.531 86.7943 93.2521 85.0622 89.0517C83.3301 84.8513 84.7714 83.4948 89.443 87.2668C94.1146 91.0388 104.507 103.741 107.004 110.571C109.406 117.157 105.771 117.259 100.879 114.337C96.8708 111.928 93.1916 107.608 93.1916 107.608Z" fill="#FFD76B"/>
<path d="M96.6187 118.698L95.7842 115.241L94.5895 106.882C94.5895 106.882 97.4152 102.866 95.7716 99.5342C94.9435 97.8445 87.6864 86.7189 84.6268 84.6306C81.7631 82.6732 77.5972 84.7674 76.0484 86.3024C70.0809 92.2163 67.2615 102.705 65.1185 118.698H96.6187Z" fill="#FFD76B"/>
<path d="M79.0954 106.8C80.4051 106.51 81.7333 106.3 83.0717 106.17C83.7417 106.11 84.4118 106.092 85.0819 106.092C85.4022 106.092 85.7246 106.092 86.0491 106.092C86.4031 106.092 86.7571 106.17 87.1111 106.176C87.1179 106.178 87.1236 106.183 87.1277 106.189C87.1317 106.195 87.1339 106.201 87.1339 106.208C87.1339 106.215 87.1317 106.222 87.1277 106.228C87.1236 106.234 87.1179 106.238 87.1111 106.241C86.7761 106.241 86.4474 106.306 86.1123 106.336L85.1135 106.408C84.4434 106.461 83.7797 106.521 83.1096 106.568C81.7694 106.657 80.4356 106.759 79.1017 106.901C79.0449 106.925 79.0385 106.812 79.0954 106.8Z" fill="#263238"/>
<path d="M94.5893 106.882C94.9049 106.285 95.1835 105.671 95.4237 105.044C95.6707 104.429 95.8569 103.793 95.98 103.146C96.1082 102.51 96.1232 101.859 96.0243 101.218C95.8811 100.579 95.6693 99.9552 95.3921 99.3562C94.8437 98.1285 94.2102 96.936 93.4957 95.7865C92.8003 94.6263 92.067 93.484 91.321 92.3477C92.2218 93.3838 93.0516 94.4728 93.8054 95.608C94.5737 96.7456 95.2438 97.9393 95.8093 99.1778C96.0799 99.8113 96.2812 100.469 96.4099 101.141C96.5141 101.827 96.4776 102.526 96.3024 103.2C95.9683 104.513 95.3882 105.76 94.5893 106.882Z" fill="#FFC21F"/>
<path d="M107.263 115.415C104.988 117.646 99.8483 117.384 86.8323 117.866C85.037 117.932 81.143 106.098 83.0394 105.937C85.4606 105.729 94.886 105.42 95.575 105.479C101.41 105.961 108.806 113.88 107.263 115.415Z" fill="#FFBE9D"/>
<path d="M85.65 105.747C85.65 105.747 80.1756 105.747 77.293 106.55C74.3223 107.482 71.6366 109.078 69.4669 111.203C67.1153 113.487 63.1075 120.544 65.0419 121.983C66.8119 123.286 70.5226 115.879 70.5226 115.879C70.5226 115.879 65.4148 122.846 67.8549 124.048C70.295 125.25 74.0816 116.421 74.0816 116.421C74.0816 116.421 69.0244 123.685 71.73 124.548C73.7908 125.202 77.6975 117.408 77.6975 117.408C77.6975 117.408 73.3799 123.679 75.4724 124.435C77.7734 125.274 81.8634 118.277 81.8634 118.277C87.5149 119.36 90.6756 117.682 92.7744 116.266C93.3054 115.903 85.65 105.747 85.65 105.747Z" fill="#FFBE9D"/>
<path d="M72.1417 113.368C71.5096 114.165 70.8774 114.968 70.3148 115.813C69.7522 116.658 69.2338 117.527 68.7724 118.419C68.1362 119.574 67.642 120.794 67.2994 122.054C68.1822 119.927 69.2764 117.883 70.5677 115.95C71.1176 115.105 71.6234 114.231 72.1797 113.386C72.1986 113.362 72.1417 113.35 72.1417 113.368Z" fill="#FFA172"/>
<path d="M75.4351 115.195C74.6765 116.242 73.8863 117.259 73.172 118.342C72.4577 119.425 71.9077 120.502 71.2756 121.626C71.2313 121.709 71.2756 121.703 71.3451 121.626C72.0215 120.531 72.7295 119.568 73.4186 118.479C74.1076 117.39 74.7461 116.271 75.473 115.212C75.4794 115.189 75.4478 115.177 75.4351 115.195Z" fill="#FFA172"/>
<path d="M78.5575 116.284C77.3515 117.873 76.324 119.576 75.4915 121.365C75.4473 121.448 75.5295 121.436 75.58 121.365C76.5662 119.663 77.3248 118.318 78.6144 116.355C78.6333 116.29 78.5827 116.248 78.5575 116.284Z" fill="#FFA172"/>
<path d="M84.5317 105.579L93.6853 118.793C93.6853 118.793 105.273 118.008 107.365 115.551C108.743 113.932 101.511 105.502 95.0128 105.437L84.5317 105.579Z" fill="#FFD76B"/>
<path d="M102.282 108.405C100.333 106.594 97.742 105.524 95.0062 105.4C94.9683 105.4 94.962 105.448 95.0062 105.454C97.794 105.781 101.328 107.697 102.27 108.429C102.276 108.464 102.308 108.429 102.282 108.405Z" fill="#FFC21F"/>
<path d="M84.5382 105.426C85.2488 105.34 85.9647 105.298 86.6812 105.301C87.3956 105.301 88.1162 105.265 88.8369 105.265C91.1822 105.156 93.5331 105.225 95.8664 105.473C95.8664 105.473 95.7273 105.586 95.702 105.58C94.4883 105.337 85.4232 105.699 84.6963 105.64L84.7532 105.795C84.7532 105.83 84.7152 105.866 84.6836 105.836C84.652 105.807 84.5509 105.688 84.475 105.61C84.456 105.598 84.4416 105.58 84.4342 105.56C84.4267 105.539 84.4266 105.517 84.4337 105.496C84.4408 105.475 84.4548 105.457 84.4736 105.445C84.4924 105.432 84.5151 105.425 84.5382 105.426Z" fill="#FFC21F"/>
<path d="M74.8026 87.0926C64.8526 96.6119 57.311 107.321 58.0759 109.987C59.5045 114.948 66.6163 115.484 67.5898 114.318C71.5534 109.6 75.4095 100.735 79.5691 90.8587C83.2861 82.0296 78.0772 83.9572 74.8026 87.0926Z" fill="#FFD76B"/>
<path d="M69.1891 112.225C69.8781 111.035 70.5166 109.798 71.1677 108.578C71.8189 107.358 72.432 106.133 73.0642 104.907C74.3285 102.474 75.4474 99.9986 76.5347 97.5058C77.1669 96.0898 77.799 94.6857 78.3616 93.2578C78.3616 93.2162 78.4628 93.2578 78.4438 93.2875C77.9065 94.9356 77.3186 96.5598 76.6675 98.1662L76.7054 98.1126C76.8634 97.8806 77.0151 97.6486 77.1669 97.4165C77.464 96.9584 77.7421 96.4825 78.0076 96.0065C78.0076 95.9649 78.0708 96.0362 78.0708 96.0362C77.7764 96.6846 77.4342 97.3128 77.0468 97.9163C76.8657 98.2076 76.6651 98.4878 76.4462 98.7552C76.1491 99.4691 75.8141 100.183 75.5233 100.891C74.3791 103.396 73.1527 105.883 71.7304 108.269C71.3321 108.941 70.9338 109.613 70.5166 110.274C70.0994 110.934 69.6506 111.576 69.2523 112.231C69.227 112.29 69.1701 112.261 69.1891 112.225Z" fill="#FFC21F"/>
<path d="M65.9528 113.232C67.9757 110.495 66.9516 105.051 64.7264 91.9858C64.4167 90.2009 49.8329 90.0343 50.0605 91.9858C50.3386 94.437 52.9368 104.129 53.6132 105.551C56.9257 112.518 64.5558 115.094 65.9528 113.232Z" fill="#FFBE9D"/>
<path d="M50.4902 93.8588C49.9466 92.3595 48.0311 85.2022 47.9616 83.1496C47.8921 81.097 48.2461 75.082 49.9339 74.8916C51.6218 74.7013 51.6723 76.4564 51.6723 76.4564C51.6723 76.4564 52.2413 73.9457 53.9544 73.8981C55.6675 73.8505 55.6549 76.5932 55.6549 76.5932C55.6549 76.5932 56.4388 74.0528 58.1519 74.1242C59.865 74.1956 59.3656 76.9442 59.3656 76.9442C59.3656 76.9442 59.9662 74.5644 61.3569 75.207C63.0258 75.9447 61.4012 80.157 61.6351 82.4476C61.6856 82.9711 63.5315 92.9188 63.5315 92.9188L50.4902 93.8588Z" fill="#FFBE9D"/>
<path d="M59.4282 76.6811C58.2398 79.7808 58.2904 81.3337 59.0363 84.4988C59.0363 84.5583 58.9541 84.594 58.9352 84.5345C57.9048 81.4943 57.5444 79.5547 59.2702 76.6157C59.3587 76.4729 59.4978 76.5324 59.4282 76.6811Z" fill="#FFA172"/>
<path d="M55.7812 76.3198C54.8456 79.6456 54.8899 81.3293 55.4082 84.6968C55.4082 84.7444 55.3324 84.7622 55.3197 84.6968C54.5169 81.4305 54.2008 79.4909 55.5979 76.2841C55.6611 76.1473 55.8255 76.1473 55.7812 76.3198Z" fill="#FFA172"/>
<path d="M51.7288 76.6057C51.0966 79.884 51.0334 81.7283 51.9816 84.9351C51.9875 84.9501 51.9868 84.9667 51.9797 84.9812C51.9726 84.9957 51.9596 85.0069 51.9437 85.0125C51.9278 85.018 51.9102 85.0173 51.8948 85.0106C51.8794 85.0039 51.8674 84.9918 51.8615 84.9768C50.6157 82.3183 50.5294 79.3056 51.6213 76.5879C51.6908 76.3975 51.773 76.3975 51.7288 76.6057Z" fill="#FFA172"/>
<path d="M64.037 94.9119C64.037 94.9119 66.2622 91.3421 66.8754 89.587C67.4885 87.8319 67.1851 80.4426 65.4909 80.4128C63.2974 80.3771 62.583 84.6667 62.5198 86.8086C62.5198 86.8086 57.4626 86.7134 56.2362 89.6882C55.0099 92.6629 64.037 94.9119 64.037 94.9119Z" fill="#FFBE9D"/>
<path d="M64.8843 80.5927C62.8614 81.9135 62.9878 84.7276 62.7539 86.804C62.7527 86.8351 62.7433 86.8654 62.7267 86.8923C62.7101 86.9192 62.6868 86.9419 62.6587 86.9583C62.6306 86.9748 62.5987 86.9845 62.5657 86.9866C62.5327 86.9888 62.4997 86.9833 62.4695 86.9706C60.3454 87.0658 57.3743 87.7797 56.1796 89.5705C56.1767 89.5764 56.1726 89.5817 56.1675 89.586C56.1624 89.5904 56.1565 89.5938 56.15 89.596C56.137 89.6005 56.1226 89.5999 56.11 89.5943C56.0975 89.5888 56.0877 89.5788 56.083 89.5666C56.0782 89.5543 56.0789 89.5407 56.0847 89.5289C57.0899 87.4406 59.9472 86.5184 62.2798 86.5541C62.4758 84.4182 62.4948 81.5862 64.8717 80.5748C64.8843 80.5689 64.897 80.5808 64.8843 80.5927Z" fill="#FFA172"/>
<path d="M49.8265 96.4121L66.7303 100.922C66.7303 100.922 70.106 111.351 67.963 113.969C65.6683 116.766 55.0228 112.434 52.9051 106.336L49.8265 96.4121Z" fill="#FFD76B"/>
<path d="M66.1291 100.749C66.3946 100.779 66.6537 100.826 66.9192 100.874C66.9391 100.88 66.9568 100.89 66.9702 100.905C66.9837 100.92 66.9923 100.938 66.9951 100.957C67.2859 101.879 67.4945 102.837 67.6968 103.777C67.8991 104.717 68.0761 105.646 68.2404 106.586C68.3289 107.093 68.4048 107.599 68.468 108.103C68.7966 108.717 68.9962 109.386 69.0559 110.072C69.0559 110.108 68.9927 110.114 68.9927 110.072C68.9139 109.458 68.7459 108.858 68.4933 108.287C68.6534 109.527 68.6172 110.782 68.3858 112.012C68.7209 110.173 68.2278 108.257 67.9054 106.449C67.7474 105.544 67.564 104.664 67.3744 103.742C67.1847 102.819 66.9635 101.957 66.7928 101.047C66.5648 100.973 66.3411 100.887 66.1227 100.791C66.0785 100.797 66.0974 100.749 66.1291 100.749Z" fill="#FFC21F"/>
<path d="M80.1633 85.5654C80.2518 86.095 82.6098 89.623 85.132 89.6885C85.9475 89.6885 86.2573 85.5238 86.2573 85.5238L86.3584 85.2204L87.7302 80.9426L82.5529 77.2896L81.8069 76.8018C81.8069 76.8018 81.5098 77.9917 81.1748 79.485C81.1748 79.5504 81.1432 79.6218 81.1242 79.6932C81.1052 79.7646 81.0799 79.8598 81.061 79.9372C81.0104 80.1573 80.9535 80.3834 80.9029 80.6154C80.8524 80.8474 80.8271 80.9545 80.7892 81.133C80.7512 81.3115 80.7196 81.496 80.6817 81.6804C80.4152 82.9628 80.2421 84.2608 80.1633 85.5654Z" fill="#FFBE9D"/>
<path d="M81.1622 79.4596C81.5345 80.7131 82.1921 81.8754 83.0894 82.8658C83.9867 83.8562 85.1022 84.651 86.3585 85.195L87.7303 80.9173L82.553 77.2642L81.807 76.7764C81.807 76.7764 81.5099 77.9663 81.1622 79.4596Z" fill="#FFA172"/>
<path d="M94.0768 73.2852C95.3411 81.0197 90.5494 82.626 88.773 82.8819C87.1611 83.1139 81.6424 83.7089 79.5246 76.1232C77.4069 68.5375 80.8458 65.527 84.4997 64.819C88.1535 64.111 92.8062 65.533 94.0768 73.2852Z" fill="#FFBE9D"/>
<path d="M91.5611 71.7556C91.3702 71.7475 91.1802 71.7277 90.9921 71.6961C90.7871 71.7017 90.5855 71.6454 90.4169 71.5355C90.3736 71.4896 90.3472 71.4319 90.3415 71.3708C90.3358 71.3097 90.3511 71.2486 90.3852 71.1963C90.4687 71.1013 90.5782 71.0294 90.7018 70.9885C90.8255 70.9477 90.9586 70.9393 91.0869 70.9643C91.3561 70.9762 91.6109 71.0823 91.8013 71.2618C91.8416 71.3049 91.8677 71.3581 91.8766 71.4149C91.8854 71.4717 91.8766 71.5297 91.8512 71.582C91.8258 71.6342 91.7849 71.6784 91.7334 71.7092C91.6819 71.74 91.6221 71.7561 91.5611 71.7556Z" fill="#263238"/>
<path d="M85.6569 71.615C85.8432 71.5733 86.0268 71.5216 86.2069 71.4603C86.4099 71.4311 86.5967 71.3389 86.7379 71.1985C86.7773 71.1498 86.7987 71.0902 86.7987 71.029C86.7987 70.9677 86.7773 70.9081 86.7379 70.8594C86.6365 70.7822 86.515 70.7321 86.3859 70.7143C86.2569 70.6965 86.1252 70.7117 86.0046 70.7582C85.7471 70.8166 85.5218 70.9629 85.3724 71.1688C85.3442 71.2147 85.3295 71.267 85.33 71.3201C85.3304 71.3732 85.346 71.4252 85.375 71.4707C85.404 71.5163 85.4455 71.5537 85.495 71.579C85.5446 71.6044 85.6005 71.6168 85.6569 71.615Z" fill="#263238"/>
<path d="M87.1304 74.2441C87.1304 74.2441 87.0862 74.2441 87.0925 74.2977C87.1684 74.8272 87.1621 75.4459 86.6753 75.672C86.6753 75.672 86.6753 75.7077 86.6753 75.7018C87.3138 75.553 87.3138 74.738 87.1304 74.2441Z" fill="#263238"/>
<path d="M86.5605 73.7685C85.6439 73.7685 85.7703 75.5118 86.6174 75.488C87.4645 75.4642 87.3128 73.7209 86.5605 73.7685Z" fill="#263238"/>
<path d="M86.2059 73.8567C86.0542 73.9638 85.9088 74.1423 85.7191 74.172C85.5295 74.2018 85.3209 74.0411 85.1628 73.8745H85.1312C85.1312 74.2018 85.3082 74.5349 85.6875 74.5587C86.0668 74.5825 86.2565 74.2732 86.3197 73.9638C86.3323 73.8983 86.2691 73.8091 86.2059 73.8567Z" fill="#263238"/>
<path d="M90.677 73.8027C90.677 73.8027 90.7212 73.8027 90.7276 73.8503C90.7276 74.3798 90.873 74.9926 91.404 75.1295V75.1592C90.7655 75.1235 90.6138 74.3144 90.677 73.8027Z" fill="#263238"/>
<path d="M91.1373 73.2142C92.0413 73.0833 92.2499 74.7967 91.4154 74.9157C90.581 75.0347 90.3787 73.3213 91.1373 73.2142Z" fill="#263238"/>
<path d="M91.5291 73.287C91.6871 73.3584 91.8452 73.5131 92.0222 73.5012C92.1992 73.4893 92.3446 73.2929 92.452 73.1025C92.452 73.1025 92.452 73.1025 92.4836 73.1025C92.5342 73.4298 92.4836 73.7808 92.1296 73.8819C91.7756 73.9831 91.5733 73.7153 91.4532 73.4C91.4279 73.3524 91.4659 73.2572 91.5291 73.287Z" fill="#263238"/>
<path d="M90.0694 76.2776C90.0694 76.2776 90.2528 77.063 90.2844 77.4378C90.2844 77.4735 90.1959 77.4973 90.0568 77.5151C89.7195 77.5997 89.364 77.595 89.0294 77.5015C88.6948 77.4081 88.3941 77.2296 88.1604 76.9856C88.1287 76.9499 88.1603 76.9083 88.2172 76.9321C88.7522 77.2178 89.3703 77.3345 89.981 77.2653C89.981 77.1641 89.6206 75.9326 89.6838 75.9207C89.9962 75.9216 90.3068 75.9637 90.6068 76.0456C90.2717 74.3976 89.6649 72.815 89.3425 71.167C89.342 71.1557 89.3453 71.1446 89.3519 71.1352C89.3586 71.1259 89.3682 71.1187 89.3794 71.1147C89.3906 71.1108 89.4028 71.1103 89.4143 71.1132C89.4259 71.1162 89.4361 71.1225 89.4436 71.1313C90.1516 72.8133 90.6809 74.557 91.024 76.3371C91.1062 76.5454 90.2338 76.3252 90.0694 76.2776Z" fill="#263238"/>
<path d="M89.9232 77.3791C89.7259 77.693 89.4476 77.9549 89.114 78.1406C88.9207 78.2384 88.6993 78.2759 88.4819 78.2477C88.0267 78.1882 87.9635 77.8074 88.0015 77.4742C88.0237 77.2954 88.0682 77.1197 88.1342 76.9507C88.6664 77.2702 89.2935 77.4203 89.9232 77.3791Z" fill="#263238"/>
<path d="M89.114 78.1399C88.9207 78.2377 88.6993 78.2752 88.4819 78.247C88.0267 78.1875 87.9635 77.8068 88.0015 77.4736C88.2401 77.447 88.4811 77.4989 88.6838 77.6203C88.8866 77.7417 89.0385 77.9253 89.114 78.1399Z" fill="#FF9ABB"/>
<path d="M88.7484 66.283C88.9051 66.9465 88.8456 67.639 88.5777 68.2702C87.6421 69.9539 85.4675 69.4601 84.69 70.0848C83.9124 70.7095 84.159 72.0184 83.5015 72.6312C82.5912 73.482 81.4028 73.1012 81.2321 73.6902C81.0614 74.2792 80.5999 76.1474 79.7718 76.3616C78.9437 76.5758 75.7387 63.9211 86.2071 64.6588C86.2071 64.6588 87.6674 64.1472 89.861 65.2835C92.0545 66.4199 93.3947 70.4239 93.3947 70.4239C93.1804 70.3148 92.9845 70.1764 92.8131 70.0134C92.3264 69.5791 92.143 69.1805 91.7827 68.8949C91.2138 68.4487 90.8914 68.6034 90.2972 68.1691C89.6626 67.6349 89.1376 66.9956 88.7484 66.283Z" fill="#263238"/>
<path d="M88.6094 65.7354C88.7567 66.23 88.8416 66.7392 88.8623 67.2525C88.9102 67.7531 88.8141 68.2565 88.5842 68.7101C88.2856 69.1268 87.8363 69.4271 87.3199 69.555C86.8205 69.7097 86.2642 69.7394 85.7205 69.9238C85.4382 70.0168 85.1887 70.1815 84.9999 70.3998C84.8365 70.6241 84.7226 70.877 84.6648 71.1435C84.5892 71.6396 84.3705 72.1067 84.0327 72.494C83.8491 72.6708 83.6266 72.8077 83.381 72.895C83.1353 72.9824 82.8722 73.0181 82.6103 72.9998C82.0726 72.8927 81.5171 72.8927 80.9794 72.9998C81.5195 72.9229 82.0708 72.9533 82.5977 73.089C82.8825 73.1209 83.1713 73.0932 83.4434 73.0078C83.7155 72.9224 83.9642 72.7815 84.1717 72.5952C84.5527 72.1966 84.803 71.7027 84.8924 71.1732C84.9449 70.936 85.0481 70.7113 85.1958 70.5128C85.3654 70.331 85.5837 70.1954 85.828 70.1202C86.3147 69.9476 86.871 69.906 87.4084 69.7335C87.6816 69.65 87.9395 69.5276 88.1733 69.3705C88.4157 69.2215 88.6137 69.0168 88.7485 68.7756C88.9733 68.2871 89.052 67.7502 88.9761 67.2227C88.9141 66.7155 88.7911 66.2165 88.6094 65.7354Z" fill="#263238"/>
<path d="M88.7922 66.1865C88.8775 66.6645 89.0328 67.129 89.2537 67.5668C89.4628 68.0274 89.8155 68.4174 90.2652 68.6853C90.4928 68.8038 90.732 68.9014 90.9795 68.9769C91.1968 69.0503 91.3875 69.1803 91.5295 69.3517C91.656 69.5617 91.8019 69.7608 91.9656 69.9466C92.1418 70.1197 92.3582 70.2521 92.5978 70.3334C92.3816 70.2147 92.1926 70.057 92.0415 69.8693C91.9026 69.6816 91.782 69.4825 91.6812 69.2743C91.5293 69.054 91.3084 68.8835 91.049 68.7865C90.8157 68.7112 90.5894 68.6176 90.3726 68.5069C89.9661 68.2521 89.6354 67.904 89.4118 67.4954C89.1755 67.0722 88.9685 66.6349 88.7922 66.1865Z" fill="#263238"/>
<path d="M81.2063 76.3421C81.2063 76.3421 79.2151 74.0098 78.0835 74.694C76.952 75.3782 78.5639 78.8587 79.98 79.2336C80.1582 79.2952 80.3479 79.3225 80.5376 79.3138C80.7273 79.3051 80.9132 79.2606 81.0842 79.1829C81.2553 79.1052 81.408 78.9959 81.5332 78.8615C81.6584 78.7271 81.7537 78.5704 81.8132 78.4006L81.2063 76.3421Z" fill="#FFBE9D"/>
<path d="M96.2961 120.591L96.4427 120.627L96.2961 120.591Z" fill="#FFBE9D"/>
<path d="M95.67 121.96L96.1015 122.056L95.67 121.96Z" fill="#FFC727"/>
</svg>
