<svg width="156" height="155" viewBox="0 0 156 155" fill="none" xmlns="http://www.w3.org/2000/svg">
<g filter="url(#filter0_d)">
<rect x="20.8691" y="16" width="114.294" height="114.294" rx="10" fill="#FF816D"/>
</g>
<rect x="44.1022" y="34.5942" width="68.1041" height="71.0022" fill="white"/>
<path d="M43.74 22.8574C33.5243 22.8574 25.2649 31.1169 25.2649 41.3325V106.104C25.2649 116.319 33.5243 124.579 43.74 124.579H111.12C121.335 124.579 129.595 116.319 129.595 106.104V41.3325C129.595 31.1169 121.335 22.8574 111.12 22.8574H43.74ZM92.9053 45.1579H101.73C101.947 45.1144 102.121 45.2883 102.165 45.4622V86.9333C102.165 87.7157 102.208 88.5852 102.252 89.5415C102.338 90.4544 102.382 91.3238 102.425 92.0628C102.425 92.3671 102.295 92.6279 101.991 92.7583C99.7302 93.7147 97.3394 94.4102 94.905 94.845C92.7315 95.2362 90.471 95.4535 88.2105 95.4535C84.9937 95.497 81.7768 94.8449 78.8643 93.4974C76.1256 92.2367 73.8652 90.1501 72.3002 87.5853C70.6918 84.9336 69.9093 81.6298 69.9093 77.674C69.8659 74.4572 70.6918 71.2838 72.3002 68.5017C73.9521 65.6761 76.343 63.3287 79.2121 61.7637C82.255 60.0684 85.9066 59.2424 90.2102 59.2424C90.4275 59.2424 90.7318 59.2424 91.123 59.2859C91.5143 59.3294 91.949 59.3294 92.4706 59.3728V45.6361C92.4706 45.3318 92.601 45.1579 92.9053 45.1579ZM54.086 48.8964H62.5628C62.8236 48.8529 63.0844 49.0268 63.1279 49.3311C63.1714 49.3746 63.1714 49.418 63.1714 49.4615V94.0625C63.1714 94.5407 62.954 94.758 62.5628 94.758H54.0425C53.6513 94.758 53.4774 94.5407 53.4774 94.0625V49.4615C53.4774 49.0703 53.6947 48.8964 54.086 48.8964ZM89.8624 67.328C88.167 67.328 86.4717 67.6757 84.9502 68.4582C83.4722 69.1972 82.2115 70.284 81.2552 71.675C80.2988 73.0661 79.8207 74.9354 79.8207 77.1958C79.7772 78.7173 80.038 80.2388 80.5597 81.6733C80.9944 82.847 81.6464 83.8903 82.5158 84.7597C83.3418 85.5422 84.3416 86.1508 85.4719 86.4986C86.6456 86.8898 87.8627 87.0637 89.0799 87.0637C89.732 87.0637 90.3406 87.0202 90.9057 86.9767C91.4708 87.0202 91.9925 86.9333 92.4706 86.7594V67.6323C91.6163 67.4282 90.7408 67.326 89.8624 67.328Z" fill="#FF816D"/>
<defs>
<filter id="filter0_d" x="0.869141" y="0" width="154.294" height="154.294" filterUnits="userSpaceOnUse" color-interpolation-filters="sRGB">
<feFlood flood-opacity="0" result="BackgroundImageFix"/>
<feColorMatrix in="SourceAlpha" type="matrix" values="0 0 0 0 0 0 0 0 0 0 0 0 0 0 0 0 0 0 127 0"/>
<feOffset dy="4"/>
<feGaussianBlur stdDeviation="10"/>
<feColorMatrix type="matrix" values="0 0 0 0 0 0 0 0 0 0 0 0 0 0 0 0 0 0 0.15 0"/>
<feBlend mode="normal" in2="BackgroundImageFix" result="effect1_dropShadow"/>
<feBlend mode="normal" in="SourceGraphic" in2="effect1_dropShadow" result="shape"/>
</filter>
</defs>
</svg>
