<svg width="155" height="155" viewBox="0 0 155 155" fill="none" xmlns="http://www.w3.org/2000/svg">
<g filter="url(#filter0_d)">
<rect x="20.6082" y="16" width="114.294" height="114.294" rx="10" fill="#FDB0B0"/>
</g>
<mask id="mask0" mask-type="alpha" maskUnits="userSpaceOnUse" x="40" y="42" width="74" height="64">
<rect x="40.8367" y="42.2637" width="72.4887" height="63.0337" fill="#C4C4C4"/>
</mask>
<g mask="url(#mask0)">
<rect x="35.4819" y="36.6509" width="83.4188" height="68.7642" fill="white"/>
<path d="M14.0638 0.578125H118.901V105.415H14.0638V0.578125ZM110.317 80.4182C109.551 75.6219 106.425 71.6119 97.1964 67.8607C93.9891 66.3602 90.4049 65.302 89.3467 62.8776C88.9536 61.4427 88.8848 60.6597 89.1403 59.8046C89.8054 56.9707 93.134 56.1353 95.7615 56.9216C97.4683 57.449 99.0376 58.7464 100.027 60.8464C104.548 57.8946 104.548 57.8946 107.69 55.9322C106.514 54.1073 105.934 53.3047 105.131 52.5381C102.383 49.4486 98.7166 47.8793 92.7605 48.0169L89.6711 48.4101C86.7192 49.1276 83.905 50.6969 82.1981 52.7969C77.2315 58.4286 78.6664 68.2571 84.688 72.3359C90.6441 76.7882 99.362 77.7612 100.489 81.9613C101.531 87.0819 96.6853 88.72 91.889 88.1204C88.3573 87.3342 86.3949 85.5618 84.2261 82.2856L76.2388 86.8755C77.143 88.9755 78.2012 89.8797 79.7705 91.7209C87.3647 99.3839 106.373 98.9908 109.783 87.3342C109.901 86.941 110.825 84.2448 110.108 80.1332L110.317 80.4182ZM71.0723 48.7639H61.2602C61.2602 57.2262 61.2078 65.6394 61.2078 74.1214C61.2078 79.4976 61.4797 84.4446 60.6115 85.9647C59.1602 88.969 55.4581 88.5922 53.7676 88.0648C52.0444 87.213 51.1565 86.0335 50.1507 84.3267C49.8592 83.8647 49.656 83.4748 49.5872 83.4748L41.6196 88.3891C42.9497 91.1378 44.8958 93.5097 47.4053 95.0102C51.1434 97.2446 56.1592 97.962 61.4142 96.7859C64.8279 95.7965 67.7798 93.7653 69.313 90.6267C71.5473 86.5643 71.069 81.5845 71.0526 76.0019C71.1051 67.0252 71.0526 58.0518 71.0526 49.0063L71.0723 48.7639Z" fill="#FDB0B0"/>
</g>
<defs>
<filter id="filter0_d" x="0.608154" y="0" width="154.294" height="154.294" filterUnits="userSpaceOnUse" color-interpolation-filters="sRGB">
<feFlood flood-opacity="0" result="BackgroundImageFix"/>
<feColorMatrix in="SourceAlpha" type="matrix" values="0 0 0 0 0 0 0 0 0 0 0 0 0 0 0 0 0 0 127 0"/>
<feOffset dy="4"/>
<feGaussianBlur stdDeviation="10"/>
<feColorMatrix type="matrix" values="0 0 0 0 0 0 0 0 0 0 0 0 0 0 0 0 0 0 0.15 0"/>
<feBlend mode="normal" in2="BackgroundImageFix" result="effect1_dropShadow"/>
<feBlend mode="normal" in="SourceGraphic" in2="effect1_dropShadow" result="shape"/>
</filter>
</defs>
</svg>
