<svg width="1533" height="481" viewBox="0 0 1533 481" fill="none" xmlns="http://www.w3.org/2000/svg">
<g filter="url(#filter0_d)">
<rect x="40" y="44" width="1453" height="401" fill="white"/>
</g>
<path d="M1401.98 234.031C1393.23 145.121 1453.27 122.45 1493 125.22V447H1261.32C1257.7 391.432 1285.02 352.281 1329.24 337.586C1383.42 319.579 1407.77 292.804 1401.98 234.031Z" fill="#00848C"/>
<mask id="mask0" mask-type="alpha" maskUnits="userSpaceOnUse" x="40" y="44" width="257" height="300">
<rect x="40" y="44" width="256.434" height="299.174" fill="#C4C4C4"/>
</mask>
<g mask="url(#mask0)">
<path d="M203.386 103.376C222.18 98.7574 256.141 94.1393 251.525 44H38.1971C27.0966 142.629 35.9858 319.306 38.1971 318.447C68.7651 306.572 105.264 309.87 121.845 318.447C135.76 325.644 225.578 360.596 261.602 300.648C316.949 208.545 241.728 187.817 203.386 167.302C157.647 142.83 184.592 107.994 203.386 103.376Z" fill="#FFD76B"/>
</g>
<path d="M1190.07 272.821C1195.14 227.605 1166.96 215.293 1118.79 198.131C1091.42 186.975 1100.19 177.489 1075.56 147.559C1050.93 117.628 1028.15 122.007 1004.61 138.527C972.984 160.717 993.202 211.369 998.159 231.026C1002.19 247.018 969.24 269.316 966.437 300.868C963.979 328.53 992.445 332.678 999.211 349.26C1004.37 361.901 998.378 381.68 1007.19 396.858C1016 412.048 1042.78 395.504 1055.92 372.377C1064.78 356.794 1078.18 330.516 1102.05 336.288C1151.54 348.253 1185 318.037 1190.07 272.821Z" fill="#FDB0B0"/>
<mask id="mask1" mask-type="alpha" maskUnits="userSpaceOnUse" x="1140" y="44" width="198" height="95">
<rect x="1140" y="44" width="197.19" height="94.3493" fill="#C4C4C4"/>
</mask>
<g mask="url(#mask1)">
<path d="M1310.07 130.47C1327.05 127.51 1338.51 81.1147 1322.13 42.753C1312.51 42.7529 1155.18 31.76 1148.03 42.753C1135.48 62.0544 1143.58 94.3528 1174.11 108.235C1223.02 130.47 1241.96 92.7458 1263.15 111.903C1283.69 130.47 1293.08 133.43 1310.07 130.47Z" fill="#FF816D"/>
</g>
<mask id="mask2" mask-type="alpha" maskUnits="userSpaceOnUse" x="390" y="370" width="200" height="78">
<rect x="390" y="370.236" width="200" height="77.2834" fill="#C4C4C4"/>
</mask>
<g mask="url(#mask2)">
<path d="M465.861 383.124C419.04 363.913 398.75 375.418 392.58 399.752C386.981 421.834 393.279 443.07 414.356 454.78C435.433 466.489 450.422 451.969 481.803 458.995C507.139 464.667 542.687 464.009 556.745 458.995C570.648 454.036 597.26 445.88 588.361 408.644C581.532 380.072 543.368 391.314 513.419 391.314C501.944 391.314 490.266 393.138 465.861 383.124Z" fill="#5F5D9E"/>
</g>
<defs>
<filter id="filter0_d" x="0" y="0" width="1533" height="481" filterUnits="userSpaceOnUse" color-interpolation-filters="sRGB">
<feFlood flood-opacity="0" result="BackgroundImageFix"/>
<feColorMatrix in="SourceAlpha" type="matrix" values="0 0 0 0 0 0 0 0 0 0 0 0 0 0 0 0 0 0 127 0"/>
<feOffset dy="-4"/>
<feGaussianBlur stdDeviation="20"/>
<feColorMatrix type="matrix" values="0 0 0 0 0 0 0 0 0 0 0 0 0 0 0 0 0 0 0.1 0"/>
<feBlend mode="normal" in2="BackgroundImageFix" result="effect1_dropShadow"/>
<feBlend mode="normal" in="SourceGraphic" in2="effect1_dropShadow" result="shape"/>
</filter>
</defs>
</svg>
