<svg width="155" height="155" viewBox="0 0 155 155" fill="none" xmlns="http://www.w3.org/2000/svg">
<g filter="url(#filter0_d)">
<rect x="20" y="16" width="114.294" height="114.294" rx="10" fill="#FF816D"/>
</g>
<rect x="34.8584" y="42.2876" width="81.1486" height="62.8616" fill="white"/>
<path d="M66.8483 57.458C65.1744 56.7766 63.3647 56.5041 61.5099 56.5495C60.3336 56.5495 59.293 56.5495 58.4334 56.5949C57.5286 56.5495 56.8952 56.5949 56.5786 56.6403V71.9036C57.2119 71.949 57.8001 71.9945 58.343 71.9945H60.7408C62.5052 71.9945 64.2696 71.7219 65.9435 71.1768C67.3912 70.768 68.658 69.9049 69.6533 68.7692C70.6034 67.6335 71.0558 66.089 71.0558 64.0903C71.101 62.6821 70.7391 61.2738 70.0152 60.0473C69.2609 58.8679 68.1515 57.9608 66.8483 57.458ZM111.637 20.5718H41.5132C30.8815 20.5718 22.2856 29.2028 22.2856 39.878V107.559C22.2856 118.234 30.8815 126.865 41.5132 126.865H111.637C122.269 126.865 130.865 118.234 130.865 107.559V39.878C130.865 29.2028 122.269 20.5718 111.637 20.5718ZM78.1994 73.4935C76.3942 76.0374 73.8607 77.9453 70.92 79.0356C67.8436 80.1712 64.4505 80.5801 60.7408 80.5801C59.655 80.5801 58.9311 80.5801 58.4787 80.5346C58.0263 80.4892 57.3929 80.4892 56.5333 80.4892V95.0665C56.5786 95.3845 56.3523 95.6616 56.0357 95.7071H47.2588C46.8969 95.7071 46.7159 95.5208 46.7159 95.112V48.3727C46.7159 48.0548 46.8517 47.873 47.1684 47.873C47.9375 47.873 48.6613 47.873 49.7019 47.8276C50.7877 47.7822 51.9187 47.7822 53.1402 47.7368C54.3617 47.6913 55.6737 47.6913 57.0762 47.6459C58.4787 47.6005 59.8359 47.6005 61.1932 47.6005C64.903 47.6005 67.9794 48.0548 70.5129 49.0087C72.7749 49.781 74.856 51.0529 76.5752 52.7337C78.0229 54.1873 79.154 55.9589 79.8778 57.9123C80.5519 59.8202 80.9138 61.7735 80.9138 63.8177C80.9184 67.7244 80.0135 70.9497 78.1994 73.4935V73.4935ZM110.28 91.1644C109.013 92.9815 107.244 94.3852 105.213 95.2119C102.996 96.1613 100.282 96.6565 97.0197 96.6565C94.9432 96.6565 92.9028 96.4793 90.8715 96.0705C89.288 95.7934 87.7046 95.2982 86.2568 94.6168C85.9402 94.4397 85.7094 94.1217 85.7547 93.7583V85.8541C85.7547 85.7223 85.8044 85.5361 85.9402 85.4452C86.0714 85.3544 86.2116 85.3998 86.3473 85.4907C88.1117 86.5355 89.9666 87.2668 91.9573 87.7165C93.6719 88.1708 95.4815 88.3979 97.2957 88.3979C99.0149 88.3979 100.236 88.1663 101.051 87.7574C101.775 87.4394 102.272 86.6672 102.272 85.8495C102.272 85.209 101.91 84.623 101.186 84.0325C100.463 83.4465 98.9742 82.7651 96.7574 81.8929C94.45 81.0752 92.3282 79.985 90.3331 78.6267C88.9174 77.6086 87.742 76.2904 86.8902 74.7655C86.1712 73.3282 85.8154 71.7354 85.8542 70.1274C85.8542 68.1741 86.3971 66.3116 87.3969 64.6308C88.528 62.8138 90.1974 61.3601 92.1427 60.4516C94.2646 59.3659 96.9338 58.8662 100.146 58.8662C102.001 58.8662 103.901 59.0025 105.756 59.2751C107.113 59.4568 108.425 59.8202 109.647 60.3199C109.823 60.3653 110.009 60.547 110.099 60.7287C110.144 60.9104 110.189 61.0921 110.189 61.2738V68.6783C110.189 68.86 110.099 69.0418 109.963 69.1326C109.556 69.2235 109.33 69.2235 109.149 69.1326C107.792 68.4058 106.344 67.9061 104.806 67.5881C103.132 67.2247 101.458 66.9976 99.7388 66.9976C98.8339 66.9521 97.8839 67.0884 97.0197 67.3155C96.4361 67.4518 95.934 67.7698 95.6173 68.2241C95.3911 68.5875 95.2553 69.0418 95.2553 69.4506C95.2553 69.8594 95.4363 70.2683 95.7123 70.6317C96.1194 71.1314 96.6578 71.5402 97.2505 71.8582C98.2865 72.4033 99.3768 72.903 100.458 73.3573C102.906 74.1749 105.258 75.3106 107.43 76.6734C108.923 77.6228 110.144 78.8993 110.999 80.4438C111.723 81.8883 112.085 83.4873 112.04 85.1182C112.09 87.2577 111.456 89.3882 110.28 91.1644V91.1644Z" fill="#FF816D"/>
<defs>
<filter id="filter0_d" x="0" y="0" width="154.294" height="154.294" filterUnits="userSpaceOnUse" color-interpolation-filters="sRGB">
<feFlood flood-opacity="0" result="BackgroundImageFix"/>
<feColorMatrix in="SourceAlpha" type="matrix" values="0 0 0 0 0 0 0 0 0 0 0 0 0 0 0 0 0 0 127 0"/>
<feOffset dy="4"/>
<feGaussianBlur stdDeviation="10"/>
<feColorMatrix type="matrix" values="0 0 0 0 0 0 0 0 0 0 0 0 0 0 0 0 0 0 0.15 0"/>
<feBlend mode="normal" in2="BackgroundImageFix" result="effect1_dropShadow"/>
<feBlend mode="normal" in="SourceGraphic" in2="effect1_dropShadow" result="shape"/>
</filter>
</defs>
</svg>
