<svg width="155" height="155" viewBox="0 0 155 155" fill="none" xmlns="http://www.w3.org/2000/svg">
<g filter="url(#filter0_d)">
<rect x="20" y="16" width="114.294" height="114.294" rx="10" fill="#5F5D9E"/>
</g>
<rect x="39" y="37" width="78" height="78" fill="white"/>
<path d="M69.0979 56.7829C67.393 56.1163 65.5686 55.8079 63.7387 55.8769C62.0881 55.8425 60.4366 55.8728 58.7883 55.9675V71.188L60.5596 71.2786H62.9667C64.7379 71.2786 66.5092 71.0068 68.1896 70.4632C69.6429 70.0556 70.9146 69.1949 71.9138 68.0624C72.8675 66.9299 73.3217 65.3897 73.3217 63.3966C73.4242 61.9878 73.0687 60.5835 72.3078 59.3921C71.547 58.2007 70.4213 57.2858 69.0979 56.7829ZM112.698 20H42.3021C37.1829 20 32.2733 22.0283 28.6534 25.6388C25.0336 29.2493 23 34.1462 23 39.2521L23 106.748C23 117.393 31.6292 126 42.3021 126H112.698C123.371 126 132 117.393 132 106.748V39.2521C132 28.6068 123.371 20 112.698 20ZM80.4975 72.7735C78.6808 75.3103 76.1375 77.2128 73.1854 78.3C70.0971 79.4325 66.6908 79.8402 62.9667 79.8402L60.6958 79.7949L58.7429 79.7496V94.2906C58.7558 94.3655 58.7528 94.4423 58.7341 94.516C58.7154 94.5896 58.6814 94.6586 58.6343 94.7183C58.5872 94.7781 58.5281 94.8273 58.4608 94.8629C58.3934 94.8985 58.3194 94.9195 58.2433 94.9248H49.4325C49.0692 94.9248 48.8875 94.7436 48.8875 94.3359V47.7231C48.8875 47.406 49.0237 47.2248 49.3417 47.2248L51.885 47.1795L55.3367 47.0889L59.2879 46.9983L63.4208 46.953C67.145 46.953 70.2333 47.406 72.7767 48.3573C75.0475 49.1273 77.1367 50.3957 78.8625 52.0718C80.3158 53.5214 81.4512 55.288 82.1779 57.2359C82.8592 59.1385 83.2225 61.0863 83.2225 63.1248C83.2225 67.0205 82.3142 70.2367 80.4975 72.7735V72.7735ZM111.472 58.5043V67.3376C111.472 67.7 111.245 67.8359 110.745 67.8359C107.748 67.7273 104.766 68.3005 102.025 69.512C101.162 69.9197 100.345 70.4632 99.7087 71.188V94.2906C99.7087 94.7436 99.5271 94.9248 99.1183 94.9248H90.1712C90.0876 94.9376 90.0023 94.9336 89.9203 94.9131C89.8382 94.8925 89.7611 94.8559 89.6934 94.8053C89.6257 94.7546 89.5689 94.6911 89.5261 94.6182C89.4834 94.5454 89.4557 94.4648 89.4446 94.3812V69.1043L89.3992 65.7068L89.3083 62.1735C89.3083 61.1316 89.2175 60.135 89.1267 59.0932C89.1111 58.9859 89.1347 58.8767 89.193 58.7852C89.2513 58.6938 89.3406 58.6263 89.4446 58.5949H97.5287C97.9829 58.5949 98.3463 58.912 98.4371 59.3197C98.8475 60.6703 99.0467 62.076 99.0275 63.4872C100.39 61.9017 102.07 60.588 103.932 59.5915C106.044 58.4218 108.421 57.8134 110.836 57.8248C111.154 57.7795 111.426 58.006 111.472 58.3231V58.5043V58.5043Z" fill="#5F5D9E"/>
<defs>
<filter id="filter0_d" x="0" y="0" width="154.294" height="154.294" filterUnits="userSpaceOnUse" color-interpolation-filters="sRGB">
<feFlood flood-opacity="0" result="BackgroundImageFix"/>
<feColorMatrix in="SourceAlpha" type="matrix" values="0 0 0 0 0 0 0 0 0 0 0 0 0 0 0 0 0 0 127 0"/>
<feOffset dy="4"/>
<feGaussianBlur stdDeviation="10"/>
<feColorMatrix type="matrix" values="0 0 0 0 0 0 0 0 0 0 0 0 0 0 0 0 0 0 0.15 0"/>
<feBlend mode="normal" in2="BackgroundImageFix" result="effect1_dropShadow"/>
<feBlend mode="normal" in="SourceGraphic" in2="effect1_dropShadow" result="shape"/>
</filter>
</defs>
</svg>
