<svg width="175" height="60" viewBox="0 0 175 60" fill="none" xmlns="http://www.w3.org/2000/svg">
<path d="M62.395 3.75434C20.76 -4.49954 8.37752 1.9701 2.54569 19C-1.05013 29.5004 -3.34716 43.0004 13.7125 53.9026C31.6764 65.3827 49.7773 56.1111 81.2957 53.9026C115.581 51.5002 125.76 56.5004 147.188 59.0004C168.617 61.5004 178.873 41.8865 171.831 15.5004C166.423 -4.76393 135.656 9.48559 107.348 9.48559C96.501 9.48559 86.1247 8.45859 62.395 3.75434Z" fill="#FFD76B"/>
<path d="M50.5465 35.236C50.7025 35.332 50.8225 35.458 50.9065 35.614C51.0025 35.77 51.0505 35.932 51.0505 36.1C51.0505 36.316 50.9785 36.514 50.8345 36.694C50.6545 36.91 50.3785 37.018 50.0065 37.018C49.7185 37.018 49.4545 36.952 49.2145 36.82C48.3505 36.328 47.9185 35.326 47.9185 33.814C47.9185 33.382 47.7745 33.04 47.4865 32.788C47.2105 32.536 46.8085 32.41 46.2805 32.41H42.9145V35.902C42.9145 36.226 42.8245 36.49 42.6445 36.694C42.4765 36.898 42.2485 37 41.9605 37C41.6125 37 41.3065 36.898 41.0425 36.694C40.7905 36.478 40.6645 36.214 40.6645 35.902V25.498C40.6645 25.186 40.7665 24.928 40.9705 24.724C41.1865 24.508 41.4505 24.4 41.7625 24.4H46.9465C47.5705 24.4 48.1585 24.568 48.7105 24.904C49.2625 25.24 49.7005 25.702 50.0245 26.29C50.3605 26.878 50.5285 27.538 50.5285 28.27C50.5285 28.87 50.3665 29.458 50.0425 30.034C49.7185 30.598 49.2985 31.048 48.7825 31.384C49.5385 31.912 49.9525 32.62 50.0245 33.508C50.0605 33.7 50.0785 33.886 50.0785 34.066C50.1265 34.438 50.1745 34.708 50.2225 34.876C50.2705 35.032 50.3785 35.152 50.5465 35.236ZM46.8565 30.556C47.0725 30.556 47.2825 30.454 47.4865 30.25C47.6905 30.046 47.8585 29.776 47.9905 29.44C48.1225 29.092 48.1885 28.72 48.1885 28.324C48.1885 27.988 48.1225 27.682 47.9905 27.406C47.8585 27.118 47.6905 26.89 47.4865 26.722C47.2825 26.554 47.0725 26.47 46.8565 26.47H42.9145V30.556H46.8565ZM61.394 31.96C61.382 32.248 61.268 32.482 61.052 32.662C60.836 32.842 60.584 32.932 60.296 32.932H54.356C54.5 33.64 54.83 34.198 55.346 34.606C55.862 35.002 56.444 35.2 57.092 35.2C57.584 35.2 57.968 35.158 58.244 35.074C58.52 34.978 58.736 34.882 58.892 34.786C59.06 34.678 59.174 34.606 59.234 34.57C59.45 34.462 59.654 34.408 59.846 34.408C60.098 34.408 60.314 34.498 60.494 34.678C60.674 34.858 60.764 35.068 60.764 35.308C60.764 35.632 60.596 35.926 60.26 36.19C59.924 36.466 59.474 36.7 58.91 36.892C58.346 37.084 57.776 37.18 57.2 37.18C56.192 37.18 55.31 36.97 54.554 36.55C53.81 36.13 53.234 35.554 52.826 34.822C52.418 34.078 52.214 33.244 52.214 32.32C52.214 31.288 52.43 30.382 52.862 29.602C53.294 28.822 53.864 28.228 54.572 27.82C55.28 27.4 56.036 27.19 56.84 27.19C57.632 27.19 58.376 27.406 59.072 27.838C59.78 28.27 60.344 28.852 60.764 29.584C61.184 30.316 61.394 31.108 61.394 31.96ZM56.84 29.17C55.448 29.17 54.626 29.824 54.374 31.132H59.09V31.006C59.042 30.502 58.796 30.07 58.352 29.71C57.908 29.35 57.404 29.17 56.84 29.17ZM71.0597 27.19C71.3717 27.19 71.6297 27.292 71.8337 27.496C72.0377 27.7 72.1397 27.964 72.1397 28.288V35.902C72.1397 36.214 72.0377 36.478 71.8337 36.694C71.6297 36.898 71.3717 37 71.0597 37C70.7477 37 70.4897 36.898 70.2857 36.694C70.0937 36.49 69.9917 36.232 69.9797 35.92C69.6797 36.268 69.2717 36.568 68.7557 36.82C68.2517 37.06 67.7177 37.18 67.1537 37.18C66.3257 37.18 65.5757 36.97 64.9037 36.55C64.2317 36.118 63.6977 35.524 63.3017 34.768C62.9177 34.012 62.7257 33.154 62.7257 32.194C62.7257 31.234 62.9177 30.376 63.3017 29.62C63.6857 28.852 64.2077 28.258 64.8677 27.838C65.5397 27.406 66.2777 27.19 67.0817 27.19C67.6577 27.19 68.1977 27.298 68.7017 27.514C69.2057 27.718 69.6317 27.982 69.9797 28.306V28.288C69.9797 27.976 70.0817 27.718 70.2857 27.514C70.4897 27.298 70.7477 27.19 71.0597 27.19ZM67.4237 35.2C68.2037 35.2 68.8397 34.918 69.3317 34.354C69.8237 33.778 70.0697 33.058 70.0697 32.194C70.0697 31.33 69.8237 30.61 69.3317 30.034C68.8397 29.458 68.2037 29.17 67.4237 29.17C66.6557 29.17 66.0257 29.458 65.5337 30.034C65.0417 30.61 64.7957 31.33 64.7957 32.194C64.7957 33.058 65.0357 33.778 65.5157 34.354C66.0077 34.918 66.6437 35.2 67.4237 35.2ZM82.2745 23.68C82.5865 23.68 82.8445 23.782 83.0485 23.986C83.2525 24.19 83.3545 24.454 83.3545 24.778V35.902C83.3545 36.214 83.2525 36.478 83.0485 36.694C82.8445 36.898 82.5865 37 82.2745 37C81.9625 37 81.7045 36.898 81.5005 36.694C81.3085 36.49 81.2065 36.232 81.1945 35.92C80.8945 36.268 80.4865 36.568 79.9705 36.82C79.4665 37.06 78.9325 37.18 78.3685 37.18C77.5405 37.18 76.7905 36.97 76.1185 36.55C75.4465 36.118 74.9125 35.524 74.5165 34.768C74.1325 34.012 73.9405 33.154 73.9405 32.194C73.9405 31.234 74.1325 30.376 74.5165 29.62C74.9005 28.852 75.4225 28.258 76.0825 27.838C76.7545 27.406 77.4925 27.19 78.2965 27.19C78.8725 27.19 79.4125 27.298 79.9165 27.514C80.4205 27.718 80.8465 27.982 81.1945 28.306V24.778C81.1945 24.466 81.2965 24.208 81.5005 24.004C81.7045 23.788 81.9625 23.68 82.2745 23.68ZM78.6385 35.2C79.4185 35.2 80.0545 34.918 80.5465 34.354C81.0385 33.778 81.2845 33.058 81.2845 32.194C81.2845 31.33 81.0385 30.61 80.5465 30.034C80.0545 29.458 79.4185 29.17 78.6385 29.17C77.8705 29.17 77.2405 29.458 76.7485 30.034C76.2565 30.61 76.0105 31.33 76.0105 32.194C76.0105 33.058 76.2505 33.778 76.7305 34.354C77.2225 34.918 77.8585 35.2 78.6385 35.2ZM101.846 27.19C103.034 27.19 103.856 27.556 104.312 28.288C104.768 29.008 104.996 30.01 104.996 31.294V35.902C104.996 36.214 104.894 36.478 104.69 36.694C104.486 36.898 104.228 37 103.916 37C103.604 37 103.346 36.898 103.142 36.694C102.938 36.478 102.836 36.214 102.836 35.902V31.294C102.836 30.634 102.704 30.118 102.44 29.746C102.188 29.362 101.738 29.17 101.09 29.17C100.418 29.17 99.8903 29.374 99.5063 29.782C99.1343 30.178 98.9483 30.682 98.9483 31.294V35.902C98.9483 36.214 98.8463 36.478 98.6423 36.694C98.4383 36.898 98.1803 37 97.8683 37C97.5563 37 97.2983 36.898 97.0943 36.694C96.8903 36.478 96.7883 36.214 96.7883 35.902V31.294C96.7883 30.634 96.6563 30.118 96.3923 29.746C96.1403 29.362 95.6903 29.17 95.0423 29.17C94.3703 29.17 93.8423 29.374 93.4583 29.782C93.0863 30.178 92.9003 30.682 92.9003 31.294V35.902C92.9003 36.214 92.7983 36.478 92.5943 36.694C92.3903 36.898 92.1323 37 91.8203 37C91.5083 37 91.2503 36.898 91.0463 36.694C90.8423 36.478 90.7403 36.214 90.7403 35.902V28.468C90.7403 28.156 90.8423 27.898 91.0463 27.694C91.2503 27.478 91.5083 27.37 91.8203 27.37C92.1323 27.37 92.3903 27.478 92.5943 27.694C92.7983 27.898 92.9003 28.156 92.9003 28.468V28.756C93.2243 28.324 93.6323 27.958 94.1243 27.658C94.6283 27.346 95.1863 27.19 95.7983 27.19C97.3103 27.19 98.2763 27.85 98.6963 29.17C98.9723 28.666 99.3863 28.21 99.9383 27.802C100.502 27.394 101.138 27.19 101.846 27.19ZM116.586 32.194C116.586 33.154 116.37 34.018 115.938 34.786C115.506 35.542 114.912 36.13 114.156 36.55C113.412 36.97 112.59 37.18 111.69 37.18C110.778 37.18 109.95 36.97 109.206 36.55C108.462 36.13 107.874 35.542 107.442 34.786C107.01 34.018 106.794 33.154 106.794 32.194C106.794 31.234 107.01 30.376 107.442 29.62C107.874 28.852 108.462 28.258 109.206 27.838C109.95 27.406 110.778 27.19 111.69 27.19C112.59 27.19 113.412 27.406 114.156 27.838C114.912 28.258 115.506 28.852 115.938 29.62C116.37 30.376 116.586 31.234 116.586 32.194ZM114.426 32.194C114.426 31.606 114.3 31.084 114.048 30.628C113.808 30.16 113.478 29.8 113.058 29.548C112.65 29.296 112.194 29.17 111.69 29.17C111.186 29.17 110.724 29.296 110.304 29.548C109.896 29.8 109.566 30.16 109.314 30.628C109.074 31.084 108.954 31.606 108.954 32.194C108.954 32.782 109.074 33.304 109.314 33.76C109.566 34.216 109.896 34.57 110.304 34.822C110.724 35.074 111.186 35.2 111.69 35.2C112.194 35.2 112.65 35.074 113.058 34.822C113.478 34.57 113.808 34.216 114.048 33.76C114.3 33.304 114.426 32.782 114.426 32.194ZM123.395 27.19C123.755 27.19 124.055 27.292 124.295 27.496C124.547 27.7 124.673 27.94 124.673 28.216C124.673 28.588 124.577 28.87 124.385 29.062C124.193 29.242 123.965 29.332 123.701 29.332C123.521 29.332 123.317 29.29 123.089 29.206C123.053 29.194 122.969 29.17 122.837 29.134C122.717 29.098 122.585 29.08 122.441 29.08C122.129 29.08 121.829 29.176 121.541 29.368C121.253 29.56 121.013 29.854 120.821 30.25C120.641 30.634 120.551 31.096 120.551 31.636V35.902C120.551 36.214 120.449 36.478 120.245 36.694C120.041 36.898 119.783 37 119.471 37C119.159 37 118.901 36.898 118.697 36.694C118.493 36.478 118.391 36.214 118.391 35.902V28.468C118.391 28.156 118.493 27.898 118.697 27.694C118.901 27.478 119.159 27.37 119.471 27.37C119.783 27.37 120.041 27.478 120.245 27.694C120.449 27.898 120.551 28.156 120.551 28.468V28.702C120.827 28.21 121.223 27.838 121.739 27.586C122.255 27.322 122.807 27.19 123.395 27.19ZM134.431 31.96C134.419 32.248 134.305 32.482 134.089 32.662C133.873 32.842 133.621 32.932 133.333 32.932H127.393C127.537 33.64 127.867 34.198 128.383 34.606C128.899 35.002 129.481 35.2 130.129 35.2C130.621 35.2 131.005 35.158 131.281 35.074C131.557 34.978 131.773 34.882 131.929 34.786C132.097 34.678 132.211 34.606 132.271 34.57C132.487 34.462 132.691 34.408 132.883 34.408C133.135 34.408 133.351 34.498 133.531 34.678C133.711 34.858 133.801 35.068 133.801 35.308C133.801 35.632 133.633 35.926 133.297 36.19C132.961 36.466 132.511 36.7 131.947 36.892C131.383 37.084 130.813 37.18 130.237 37.18C129.229 37.18 128.347 36.97 127.591 36.55C126.847 36.13 126.271 35.554 125.863 34.822C125.455 34.078 125.251 33.244 125.251 32.32C125.251 31.288 125.467 30.382 125.899 29.602C126.331 28.822 126.901 28.228 127.609 27.82C128.317 27.4 129.073 27.19 129.877 27.19C130.669 27.19 131.413 27.406 132.109 27.838C132.817 28.27 133.381 28.852 133.801 29.584C134.221 30.316 134.431 31.108 134.431 31.96ZM129.877 29.17C128.485 29.17 127.663 29.824 127.411 31.132H132.127V31.006C132.079 30.502 131.833 30.07 131.389 29.71C130.945 29.35 130.441 29.17 129.877 29.17Z" fill="black"/>
</svg>
