<svg width="156" height="155" viewBox="0 0 156 155" fill="none" xmlns="http://www.w3.org/2000/svg">
<g filter="url(#filter0_d)">
<rect x="20.7632" y="16" width="114.294" height="114.294" rx="10" fill="#0C9199"/>
</g>
<path d="M109.762 46.11L95.6547 39.2878C94.8569 38.8992 93.9584 38.7703 93.0842 38.9189C92.2101 39.0676 91.4038 39.4864 90.7774 40.1171L63.7573 64.9008L51.9819 55.9244C51.4516 55.5169 50.7958 55.3093 50.1289 55.3381C49.462 55.3668 48.8262 55.63 48.3325 56.0817L44.561 59.5369C44.2662 59.8047 44.0304 60.1315 43.8687 60.4963C43.7069 60.8612 43.6228 61.2559 43.6218 61.6553C43.6208 62.0547 43.7029 62.4499 43.8628 62.8156C44.0227 63.1812 44.2569 63.5092 44.5503 63.7785L54.7635 73.147L44.5503 82.5154C44.2569 82.7847 44.0227 83.1127 43.8628 83.4784C43.7029 83.844 43.6208 84.2392 43.6218 84.6386C43.6228 85.038 43.7069 85.4328 43.8687 85.7976C44.0304 86.1624 44.2662 86.4892 44.561 86.757L48.3325 90.2123C48.8262 90.664 49.462 90.9271 50.1289 90.9559C50.7958 90.9846 51.4516 90.7771 51.9819 90.3695L63.7573 81.3824L90.7903 106.177C91.4144 106.807 92.2189 107.226 93.0914 107.375C93.9639 107.524 94.8608 107.395 95.6569 107.006L109.777 100.173C110.504 99.822 111.117 99.2711 111.546 98.5841C111.974 97.8971 112.2 97.1022 112.198 96.2913V49.9875C112.198 48.3374 111.249 46.8231 109.766 46.1057L109.762 46.11ZM95.0611 88.8013L74.5469 73.1491L95.0611 57.497V88.8013Z" fill="white"/>
<defs>
<filter id="filter0_d" x="0.763184" y="0" width="154.294" height="154.294" filterUnits="userSpaceOnUse" color-interpolation-filters="sRGB">
<feFlood flood-opacity="0" result="BackgroundImageFix"/>
<feColorMatrix in="SourceAlpha" type="matrix" values="0 0 0 0 0 0 0 0 0 0 0 0 0 0 0 0 0 0 127 0"/>
<feOffset dy="4"/>
<feGaussianBlur stdDeviation="10"/>
<feColorMatrix type="matrix" values="0 0 0 0 0 0 0 0 0 0 0 0 0 0 0 0 0 0 0.15 0"/>
<feBlend mode="normal" in2="BackgroundImageFix" result="effect1_dropShadow"/>
<feBlend mode="normal" in="SourceGraphic" in2="effect1_dropShadow" result="shape"/>
</filter>
</defs>
</svg>
